<svg id="Layer_1" data-name="Layer 1" xmlns="http://www.w3.org/2000/svg" viewBox="0 0 769 450"><defs><style>.cls-1{fill:#fff;}</style></defs><title>bmw-the-escape-sarah-maslechko-08</title><path class="cls-1" d="M209.54,241.08l25.39-3.5-1.06,6.82-8.93,1.23-4.3,27.67-7.5,1,4.29-27.67-8.93,1.23Z"/><path class="cls-1" d="M262.77,253.71l-10,1.36-2.19,14.1-7.5,1,5.35-34.5,7.54-1-2.11,13.57,10-1.36L266,233.3l7.53-1.05-5.36,34.51-7.53,1Z"/><path class="cls-1" d="M289.32,230.06l21.51-3-1.06,6.82-14,1.93-1,6.58,12.87-1.73-1.06,6.82L293.7,249.3l-1.15,7.41,14-1.94-1.05,6.82-21.56,3Z"/><path class="cls-1" d="M341.2,222.9l21.51-3-1.06,6.82-14,1.95-1,6.58,12.88-1.78-1.06,6.82-12.85,1.8-1.14,7.41,14-1.94-1.06,6.82-21.56,3Z"/><path class="cls-1" d="M398.44,243.19a8.18,8.18,0,0,1-6.6,6.49l-11.74,1.61c-3.17.45-5.32-1.74-4.83-4.91l.6-3.88,7.57-2.26-.54,3.47a.35.35,0,0,0,.24.44.34.34,0,0,0,.2,0l7.28-1a.68.68,0,0,0,.6-.59l.75-4.82c.06-.36-.17-.53-.57-.58l-9.64-1.46c-2.93-.45-4.49-1.56-4-4.72l1.2-7.71a8.18,8.18,0,0,1,6.6-6.5L397,215.2a4,4,0,0,1,4.82,4.91l-.55,3.63L393.69,226l.49-3.21a.35.35,0,0,0-.23-.44.34.34,0,0,0-.2,0l-7,1a.69.69,0,0,0-.6.59l-.68,4.46c-.07.41.17.53.47.59l9.88,1.47c2.83.42,4.33,1.58,3.84,4.78Z"/><path class="cls-1" d="M439,231.75l-.92,6a8.17,8.17,0,0,1-6.6,6.48l-11.89,1.65a4,4,0,0,1-4.83-4.91l3.59-23.11a8.18,8.18,0,0,1,6.6-6.49l11.89-1.64a4,4,0,0,1,4.83,4.91l-.81,5.18L433.34,222l.74-4.77a.35.35,0,0,0-.23-.45.37.37,0,0,0-.21,0l-7.38,1a.69.69,0,0,0-.6.59l-3.07,19.78a.35.35,0,0,0,.22.44.31.31,0,0,0,.21,0l7.38-1a.67.67,0,0,0,.6-.58l.86-5.55Z"/><path class="cls-1" d="M480.64,237.41,473,238.47l-1.12-6.54-10.65,1.48-3.14,7.12-7.69,1.06L467,205.52l7.59-1.05ZM464.45,226.5l6.24-.86-1.33-11.08Z"/><path class="cls-1" d="M517.7,198.52a4,4,0,0,1,4.83,4.91l-1.65,10.47a8.18,8.18,0,0,1-6.6,6.49l-11,1.52-1.93,12.66-7.51,1,5.37-34.51Zm-12.07,8.36-1.28,8.19,8.73-1.21a.67.67,0,0,0,.6-.59l1.11-7.15c.05-.31-.12-.49-.44-.44Z"/><path class="cls-1" d="M539,195.58l21.5-3-1.06,6.82-14,1.92-1,6.61,12.87-1.77L556.27,213l-12.89,1.77-1.15,7.41,14-1.94-1.06,6.82-21.55,3Z"/><path class="cls-1" d="M296.55,200.78l4.73-.65a1,1,0,0,1,1.23.77.94.94,0,0,1,0,.47l-.33,2.1a1.48,1.48,0,0,1-.86,1,.68.68,0,0,1,.65.72v0l-.38,2.4a2.07,2.07,0,0,1-1.67,1.69l-4.77.68Zm.86,7.13,2.1-.29a.17.17,0,0,0,.15-.16l.28-1.76c0-.08,0-.13-.13-.12l-2.08.29Zm2.64-4a.17.17,0,0,0,.14-.15l.25-1.62c0-.09,0-.14-.13-.13l-2,.28-.3,1.9Z"/><path class="cls-1" d="M308.72,203.37l-.75,4.82-1.93.27,1.43-9.19,1.93-.26,1.45,5.18,3.16-5.82,1.94-.26-1.43,9.18-1.93.26.75-4.82-2,3.6-1.69.24Z"/><path class="cls-1" d="M324.53,196.92l1.74-.24.68,5.46,1.54-5.76,2-.28-2.83,9.38-2.05.27-.68-5.79-2.54,6.24-2.05.28v-9l2-.27-.22,5.61Z"/><path class="cls-1" d="M339.65,203.82l1.43-9.18,5.8-.81-.28,1.82-3.8.53-.27,1.75,3.49-.48-.28,1.82-3.49.47-.59,3.8Z"/><path class="cls-1" d="M352,202.11l-2,.28,1.42-9.19,2-.27Z"/><path class="cls-1" d="M358.16,192.28l2-.28L359,199.37l3.66-.51-.28,1.82-5.66.78Z"/><path class="cls-1" d="M368.54,195.11l-.75,4.82-1.93.26,1.42-9.17,1.94-.27,1.45,5.18,3.16-5.82,1.93-.27L374.34,199l-1.94.27.75-4.82-2,3.6-1.68.24Z"/><path class="cls-1" d="M385.37,196a2.2,2.2,0,0,1-1.76,1.72l-3.12.43a1.08,1.08,0,0,1-1.29-.81,1.06,1.06,0,0,1,0-.5l.16-1,2-.6-.15.92a.1.1,0,0,0,0,.12h.07l1.94-.27a.17.17,0,0,0,.15-.16l.2-1.28c0-.09,0-.14-.15-.15l-2.56-.39c-.78-.12-1.2-.41-1.06-1.25l.31-2.05a2.19,2.19,0,0,1,1.76-1.72l3-.42a1.08,1.08,0,0,1,1.29.81,1,1,0,0,1,0,.49l-.15,1-2,.6.13-.85a.09.09,0,0,0-.06-.12h-.05l-1.86.26a.17.17,0,0,0-.15.15l-.19,1.19a.14.14,0,0,0,.12.16l2.64.38c.75.12,1.15.43,1,1.27Z"/><path class="cls-1" d="M402.46,186.15a1.07,1.07,0,0,1,1.29.8,1.2,1.2,0,0,1,0,.5l-.43,2.79a2.2,2.2,0,0,1-1.77,1.74l-2.94.4-.47,3.36-2,.28,1.41-9.19Zm-3.22,2.22-.33,2.17,2.32-.32a.18.18,0,0,0,.16-.15l.3-1.91a.1.1,0,0,0-.05-.11.09.09,0,0,0-.07,0Z"/><path class="cls-1" d="M411,190.66l-1.36.19-.53,3.41-2,.27,1.43-9.17,5.11-.69a1.08,1.08,0,0,1,1.29.81,1.2,1.2,0,0,1,0,.5l-.43,2.72a2.22,2.22,0,0,1-1.36,1.61l1.1,3.2-2.2.31Zm-.75-3.8L409.9,189l2.5-.35a.19.19,0,0,0,.16-.15l.29-1.89a.09.09,0,0,0-.05-.12.09.09,0,0,0-.07,0Z"/><path class="cls-1" d="M420.26,183.7l5.72-.79-.29,1.82-3.72.52L421.7,187l3.41-.47-.29,1.82-3.41.47-.3,2,3.73-.51-.28,1.82-5.74.79Z"/><path class="cls-1" d="M435.67,189.07a2.18,2.18,0,0,1-1.76,1.73l-3.12.43a1.08,1.08,0,0,1-1.3-.78,1.06,1.06,0,0,1,0-.53l.15-1,2.05-.6-.16.92a.09.09,0,0,0,.06.12h.06l1.93-.27a.18.18,0,0,0,.16-.16l.2-1.27c0-.11-.05-.15-.15-.16l-2.57-.39c-.77-.12-1.19-.42-1.06-1.25l.32-2.05a2.19,2.19,0,0,1,1.73-1.73l3-.42a1.07,1.07,0,0,1,1.28.8,1.1,1.1,0,0,1,0,.51l-.15,1-2,.6.13-.85a.09.09,0,0,0,0-.12h-.07l-1.86.26a.17.17,0,0,0-.15.15l-.15,1.18c0,.11,0,.15.13.16l2.63.4c.75.1,1.14.41,1,1.26Z"/><path class="cls-1" d="M441.65,180.74l5.73-.79-.29,1.82-3.72.52-.24,1.75,3.41-.47-.27,1.81-3.41.48-.31,2,3.73-.52-.28,1.82-5.74.79Z"/><path class="cls-1" d="M457.65,187.51l-1.93.27-2.24-4.93-.8,5.34-1.93.27,1.39-9.13,1.94-.28,2.23,5,.83-5.38,1.94-.27Z"/><path class="cls-1" d="M463.27,177.76l6.75-.93-.29,1.81-2.37.34-1.15,7.36-2,.27,1.14-7.36-2.38.33Z"/><path class="cls-1" d="M478.63,183.14a2.19,2.19,0,0,1-1.76,1.72l-3.12.43a1.06,1.06,0,0,1-1.29-.79,1.1,1.1,0,0,1,0-.51l.16-1,2-.6-.16.93a.11.11,0,0,0,.06.12h.06l1.93-.27a.18.18,0,0,0,.16-.16l.2-1.28c0-.1-.05-.14-.15-.15l-2.56-.39c-.78-.13-1.2-.42-1.07-1.26l.32-2a2.2,2.2,0,0,1,1.74-1.74l3-.42a1.08,1.08,0,0,1,1.29.8,1.1,1.1,0,0,1,0,.51l-.14,1-2,.6.14-.85a.09.09,0,0,0-.05-.12h-.07l-1.85.26a.18.18,0,0,0-.16.15l-.18,1.19c0,.11,0,.14.12.16l2.63.39c.75.11,1.15.42,1,1.26Z"/></svg>