<svg id="Layer_1" data-name="Layer 1" xmlns="http://www.w3.org/2000/svg" viewBox="0 0 769 450"><defs><style>.cls-1{fill:#fff;}</style></defs><title>bmw-the-escape-sarah-maslechko-08</title><path class="cls-1" d="M188.21,243l28.49-3.93-1.19,7.65-10,1.38-4.82,31.05-8.42,1.16,4.82-31-10,1.39Z"/><path class="cls-1" d="M247.93,257.21l-11.18,1.53-2.46,15.81-8.41,1.16,6-38.71,8.46-1.16L238,251.06l11.19-1.53,2.36-15.22,8.46-1.17-6,38.71L245.51,273Z"/><path class="cls-1" d="M277.72,230.68l24.14-3.33-1.2,7.65L285,237.17l-1.15,7.38,14.44-1.93-1.2,7.65-14.44,2-1.29,8.31,15.73-2.17-1.19,7.65-24.18,3.34Z"/><path class="cls-1" d="M335.93,222.65l24.13-3.34-1.2,7.65-15.69,2.19L342,236.53l14.46-2-1.2,7.65-14.4,2-1.29,8.31,15.73-2.18L354.13,258l-24.19,3.35Z"/><path class="cls-1" d="M400.14,245.4a9.17,9.17,0,0,1-7.41,7.28l-13.16,1.82c-3.56.5-6-2-5.42-5.51l.67-4.35,8.49-2.54-.6,3.89a.4.4,0,0,0,.49.5l8.17-1.13a.75.75,0,0,0,.67-.65l.84-5.41c.07-.41-.19-.6-.64-.65L381.42,237c-3.28-.51-5-1.75-4.48-5.3l1.35-8.66a9.17,9.17,0,0,1,7.4-7.28L398.51,214c3.56-.49,6,2,5.42,5.51l-.63,4.07-8.49,2.53.55-3.6a.4.4,0,0,0-.26-.5.45.45,0,0,0-.23,0l-7.81,1.08a.76.76,0,0,0-.67.66l-.77,5c-.07.47.2.6.52.67.56.09,3.74.57,11.1,1.65,3.17.48,4.85,1.78,4.31,5.36Z"/><path class="cls-1" d="M445.69,232.57l-1,6.69a9.17,9.17,0,0,1-7.41,7.27l-13.34,1.85c-3.56.49-6-2-5.42-5.51l4-25.93a9.2,9.2,0,0,1,7.4-7.28l13.35-1.84c3.55-.49,6,2,5.41,5.51l-.9,5.81-8.49,2.54.83-5.35a.39.39,0,0,0-.25-.5.43.43,0,0,0-.25,0L431.35,217a.76.76,0,0,0-.67.66l-3.45,22.19a.4.4,0,0,0,.25.5.49.49,0,0,0,.24,0l8.28-1.15a.76.76,0,0,0,.67-.65l1-6.22Z"/><path class="cls-1" d="M492.36,238.92l-8.62,1.19-1.26-7.33-12,1.65-3.52,8-8.62,1.18,18.71-40.46,8.51-1.18ZM474.2,226.68l7-1-1.49-12.43Z"/><path class="cls-1" d="M533.93,195.3c3.56-.49,6,2,5.42,5.51l-1.85,11.74a9.18,9.18,0,0,1-7.41,7.28l-12.35,1.71-2.18,14.19-8.41,1.17,6-38.71Zm-13.54,9.38L519,213.86l9.79-1.36a.77.77,0,0,0,.68-.66l1.24-8c.06-.35-.14-.55-.49-.5Z"/><path class="cls-1" d="M557.83,192,582,188.67l-1.19,7.65-15.68,2.16-1.14,7.41,14.44-2-1.18,7.65-14.45,2-1.3,8.32,15.73-2.17L576,227.34l-24.19,3.33Z"/><path class="cls-1" d="M285.84,197.83l5.3-.73a1.15,1.15,0,0,1,1.38.86,1.19,1.19,0,0,1,0,.53l-.37,2.36a1.69,1.69,0,0,1-1,1.13.78.78,0,0,1,.74.8.11.11,0,0,0,0,.05l-.42,2.7a2.34,2.34,0,0,1-1.87,1.89l-5.36.77Zm1,8,2.36-.32a.21.21,0,0,0,.18-.17l.31-2c0-.1,0-.15-.15-.13l-2.34.32Zm3-4.52a.17.17,0,0,0,.16-.16l.29-1.82c0-.1,0-.16-.15-.14l-2.29.31-.33,2.13Z"/><path class="cls-1" d="M299.49,200.73l-.85,5.41-2.16.3,1.6-10.3,2.16-.3,1.63,5.81,3.55-6.52,2.18-.3-1.6,10.3-2.18.3.84-5.41-2.24,4-1.89.26Z"/><path class="cls-1" d="M317.22,193.5l1.95-.27.77,6.12,1.72-6.46,2.21-.31-3.18,10.52-2.3.31-.76-6.51-2.86,7-2.29.32V194.14l2.2-.3-.25,6.28Z"/><path class="cls-1" d="M334.19,201.23l1.6-10.29,6.51-.91-.32,2.05-4.26.59-.31,2,3.92-.54-.31,2-3.92.54-.66,4.25Z"/><path class="cls-1" d="M348,199.32l-2.25.31,1.6-10.3,2.25-.31Z"/><path class="cls-1" d="M355,188.3l2.25-.32-1.28,8.27,4.11-.58-.32,2-6.36.88Z"/><path class="cls-1" d="M366.6,191.46l-.84,5.41-2.18.3,1.6-10.3,2.17-.29,1.63,5.81,3.55-6.53,2.17-.3-1.6,10.3-2.17.3.84-5.42-2.23,4-1.89.26Z"/><path class="cls-1" d="M385.47,192.49a2.45,2.45,0,0,1-2,1.93l-3.5.48a1.21,1.21,0,0,1-1.45-.91,1.18,1.18,0,0,1,0-.56l.18-1.16,2.26-.67-.16,1a.09.09,0,0,0,.05.13.11.11,0,0,0,.08,0l2.17-.29a.21.21,0,0,0,.17-.18l.23-1.44c0-.11-.05-.16-.17-.17l-2.88-.43c-.87-.14-1.34-.47-1.18-1.41l.35-2.3a2.44,2.44,0,0,1,2-1.93l3.41-.47a1.2,1.2,0,0,1,1.44.91,1,1,0,0,1,0,.55l-.17,1.09-2.25.67.14-1a.11.11,0,0,0-.07-.14.06.06,0,0,0-.06,0l-2.08.29a.21.21,0,0,0-.18.18l-.2,1.33c0,.12.05.15.14.17l2.95.44c.84.13,1.29.47,1.15,1.41Z"/><path class="cls-1" d="M404.64,181.41a1.21,1.21,0,0,1,1.45.91,1.14,1.14,0,0,1,0,.55L405.6,186a2.44,2.44,0,0,1-2,1.95l-3.29.45-.53,3.78-2.25.31,1.57-10.31Zm-3.6,2.5-.37,2.44,2.6-.36a.24.24,0,0,0,.18-.18l.33-2.13a.1.1,0,0,0,0-.13.11.11,0,0,0-.08,0Z"/><path class="cls-1" d="M414.21,186.48l-1.53.21-.59,3.83-2.24.3,1.6-10.3,5.73-.76a1.2,1.2,0,0,1,1.45.91,1.14,1.14,0,0,1,0,.55l-.47,3.05a2.53,2.53,0,0,1-1.53,1.81l1.23,3.59-2.46.35Zm-.84-4.27-.38,2.44,2.81-.39a.24.24,0,0,0,.18-.18l.32-2.12a.09.09,0,0,0-.05-.13.11.11,0,0,0-.08,0Z"/><path class="cls-1" d="M424.61,178.66l6.42-.88-.32,2-4.17.58-.31,2,3.83-.53-.32,2-3.83.53-.34,2.21,4.18-.57-.31,2L423,189Z"/><path class="cls-1" d="M441.91,184.69a2.46,2.46,0,0,1-2,1.94l-3.51.48a1.2,1.2,0,0,1-1.45-.88,1.14,1.14,0,0,1,0-.58l.18-1.16,2.29-.68-.18,1a.12.12,0,0,0,.07.13.06.06,0,0,0,.06,0l2.18-.29a.22.22,0,0,0,.17-.19l.23-1.43c0-.11-.06-.16-.17-.17l-2.88-.44c-.87-.14-1.34-.47-1.19-1.41l.36-2.29a2.44,2.44,0,0,1,1.94-1.94l3.41-.47a1.2,1.2,0,0,1,1.45.89,1.26,1.26,0,0,1,0,.58l-.16,1.07-2.3.68.16-1a.1.1,0,0,0-.06-.13h-.07l-2.08.28a.24.24,0,0,0-.18.18l-.16,1.32c0,.13,0,.16.14.18l2.95.44c.84.13,1.29.47,1.14,1.42Z"/><path class="cls-1" d="M448.62,175.35l6.42-.89-.32,2-4.17.57-.27,2,3.83-.53-.32,2-3.82.54-.35,2.21,4.19-.58-.32,2-6.43.89Z"/><path class="cls-1" d="M466.57,182.94l-2.17.3-2.51-5.52-.9,6-2.16.29,1.56-10.24,2.17-.31,2.5,5.57.94-6,2.17-.3Z"/><path class="cls-1" d="M472.87,172l7.58-1-.33,2-2.66.37-1.29,8.26-2.25.3,1.29-8.25-2.67.36Z"/><path class="cls-1" d="M490.1,178a2.45,2.45,0,0,1-2,1.93l-3.51.48a1.19,1.19,0,0,1-1.44-.88,1.14,1.14,0,0,1,0-.58l.17-1.16,2.3-.67-.18,1a.11.11,0,0,0,.07.14h.06l2.17-.3a.2.2,0,0,0,.18-.18l.22-1.44c0-.11-.05-.16-.16-.17l-2.88-.44c-.87-.13-1.34-.46-1.19-1.4l.36-2.3a2.41,2.41,0,0,1,1.94-1.94l3.41-.48a1.2,1.2,0,0,1,1.44,1.47l-.15,1.08-2.26.67.15-1a.1.1,0,0,0-.05-.13h-.08l-2.08.28a.19.19,0,0,0-.17.18l-.21,1.33c0,.12.05.16.14.17l2.94.45c.85.12,1.3.46,1.15,1.41Z"/></svg>