<svg id="el_RyAy--b2g" data-name="Layer 1" xmlns="http://www.w3.org/2000/svg" viewBox="0 0 600 351"><style>@-webkit-keyframes el_ZftMYp6ynA_Animation{0%{opacity: 0;}82.64%{opacity: 0;}83.33%{opacity: 1;}100%{opacity: 1;}}@keyframes el_ZftMYp6ynA_Animation{0%{opacity: 0;}82.64%{opacity: 0;}83.33%{opacity: 1;}100%{opacity: 1;}}@-webkit-keyframes el_RgOuaNmgKF_Animation{0%{opacity: 0;}82.64%{opacity: 0;}83.33%{opacity: 1;}100%{opacity: 1;}}@keyframes el_RgOuaNmgKF_Animation{0%{opacity: 0;}82.64%{opacity: 0;}83.33%{opacity: 1;}100%{opacity: 1;}}@-webkit-keyframes el_3CVvvGfSgO_Animation{0%{opacity: 0;}82.64%{opacity: 0;}83.33%{opacity: 1;}100%{opacity: 1;}}@keyframes el_3CVvvGfSgO_Animation{0%{opacity: 0;}82.64%{opacity: 0;}83.33%{opacity: 1;}100%{opacity: 1;}}@-webkit-keyframes el_0HZ4KnhlXJ_Animation{0%{opacity: 0;}82.64%{opacity: 0;}83.33%{opacity: 1;}100%{opacity: 1;}}@keyframes el_0HZ4KnhlXJ_Animation{0%{opacity: 0;}82.64%{opacity: 0;}83.33%{opacity: 1;}100%{opacity: 1;}}@-webkit-keyframes el_uVwbX3WqkO_Animation{0%{opacity: 0;}82.64%{opacity: 0;}83.33%{opacity: 1;}100%{opacity: 1;}}@keyframes el_uVwbX3WqkO_Animation{0%{opacity: 0;}82.64%{opacity: 0;}83.33%{opacity: 1;}100%{opacity: 1;}}@-webkit-keyframes el_eYUDpy6UzR_Animation{0%{opacity: 0;}82.64%{opacity: 0;}83.33%{opacity: 1;}100%{opacity: 1;}}@keyframes el_eYUDpy6UzR_Animation{0%{opacity: 0;}82.64%{opacity: 0;}83.33%{opacity: 1;}100%{opacity: 1;}}@-webkit-keyframes el_JHYcZbq0Ip_Animation{0%{opacity: 0;}82.64%{opacity: 0;}83.33%{opacity: 1;}100%{opacity: 1;}}@keyframes el_JHYcZbq0Ip_Animation{0%{opacity: 0;}82.64%{opacity: 0;}83.33%{opacity: 1;}100%{opacity: 1;}}@-webkit-keyframes el_dDVAno6SgI_Animation{0%{opacity: 0;}82.64%{opacity: 0;}83.33%{opacity: 1;}100%{opacity: 1;}}@keyframes el_dDVAno6SgI_Animation{0%{opacity: 0;}82.64%{opacity: 0;}83.33%{opacity: 1;}100%{opacity: 1;}}@-webkit-keyframes el_XirnaUz6Zb_Animation{0%{opacity: 0;}65.97%{opacity: 0;}66.67%{opacity: 1;}82.64%{opacity: 1;}83.33%{opacity: 0;}100%{opacity: 0;}}@keyframes el_XirnaUz6Zb_Animation{0%{opacity: 0;}65.97%{opacity: 0;}66.67%{opacity: 1;}82.64%{opacity: 1;}83.33%{opacity: 0;}100%{opacity: 0;}}@-webkit-keyframes el_PSkQc2wJSq_Animation{0%{opacity: 0;}49.31%{opacity: 0;}50%{opacity: 1;}65.97%{opacity: 1;}66.67%{opacity: 0;}100%{opacity: 0;}}@keyframes el_PSkQc2wJSq_Animation{0%{opacity: 0;}49.31%{opacity: 0;}50%{opacity: 1;}65.97%{opacity: 1;}66.67%{opacity: 0;}100%{opacity: 0;}}@-webkit-keyframes el_a8fnsRpTqv_Animation{0%{opacity: 0;}32.64%{opacity: 0;}33.33%{opacity: 1;}49.31%{opacity: 1;}50%{opacity: 0;}100%{opacity: 0;}}@keyframes el_a8fnsRpTqv_Animation{0%{opacity: 0;}32.64%{opacity: 0;}33.33%{opacity: 1;}49.31%{opacity: 1;}50%{opacity: 0;}100%{opacity: 0;}}@-webkit-keyframes el_Z_DULDJUI1_Animation{0%{opacity: 0;}15.97%{opacity: 0;}16.67%{opacity: 1;}32.64%{opacity: 1;}33.33%{opacity: 0;}100%{opacity: 0;}}@keyframes el_Z_DULDJUI1_Animation{0%{opacity: 0;}15.97%{opacity: 0;}16.67%{opacity: 1;}32.64%{opacity: 1;}33.33%{opacity: 0;}100%{opacity: 0;}}@-webkit-keyframes el_Lna-GbaKry_Animation{0%{opacity: 1;}15.97%{opacity: 1;}16.67%{opacity: 0;}100%{opacity: 0;}}@keyframes el_Lna-GbaKry_Animation{0%{opacity: 1;}15.97%{opacity: 1;}16.67%{opacity: 0;}100%{opacity: 0;}}#el_RyAy--b2g *{-webkit-animation-duration: 4.8s;animation-duration: 4.8s;-webkit-animation-iteration-count: infinite;animation-iteration-count: infinite;-webkit-animation-timing-function: cubic-bezier(0, 0, 1, 1);animation-timing-function: cubic-bezier(0, 0, 1, 1);}#el_RgOuaNmgKF{fill: #060687;-webkit-animation-name: el_RgOuaNmgKF_Animation;animation-name: el_RgOuaNmgKF_Animation;opacity: 0;}#el_3CVvvGfSgO{fill: #060687;-webkit-animation-name: el_3CVvvGfSgO_Animation;animation-name: el_3CVvvGfSgO_Animation;opacity: 0;}#el_0HZ4KnhlXJ{fill: #060687;-webkit-animation-name: el_0HZ4KnhlXJ_Animation;animation-name: el_0HZ4KnhlXJ_Animation;opacity: 0;}#el_uVwbX3WqkO{fill: #060687;-webkit-animation-name: el_uVwbX3WqkO_Animation;animation-name: el_uVwbX3WqkO_Animation;opacity: 0;}#el_eYUDpy6UzR{fill: #060687;-webkit-animation-name: el_eYUDpy6UzR_Animation;animation-name: el_eYUDpy6UzR_Animation;opacity: 0;}#el_ZftMYp6ynA{fill: #060687;-webkit-animation-name: el_ZftMYp6ynA_Animation;animation-name: el_ZftMYp6ynA_Animation;opacity: 0;}#el_JHYcZbq0Ip{fill: #060687;-webkit-animation-name: el_JHYcZbq0Ip_Animation;animation-name: el_JHYcZbq0Ip_Animation;opacity: 0;}#el_dDVAno6SgI{fill: #060687;-webkit-animation-name: el_dDVAno6SgI_Animation;animation-name: el_dDVAno6SgI_Animation;opacity: 0;}#el_XirnaUz6Zb{fill: #f2bc51;-webkit-animation-name: el_XirnaUz6Zb_Animation;animation-name: el_XirnaUz6Zb_Animation;opacity: 0;}#el_PSkQc2wJSq{fill: #060687;-webkit-animation-name: el_PSkQc2wJSq_Animation;animation-name: el_PSkQc2wJSq_Animation;opacity: 0;}#el_a8fnsRpTqv{fill: #f2bc51;-webkit-animation-name: el_a8fnsRpTqv_Animation;animation-name: el_a8fnsRpTqv_Animation;opacity: 0;}#el_Z_DULDJUI1{fill: #060687;-webkit-animation-name: el_Z_DULDJUI1_Animation;animation-name: el_Z_DULDJUI1_Animation;opacity: 0;}#el_Lna-GbaKry{fill: #f2bc51;-webkit-animation-name: el_Lna-GbaKry_Animation;animation-name: el_Lna-GbaKry_Animation;opacity: 1;}</style><defs/><title>mrpiece-sarah-maslechko-05-01</title><path d="M195.61,173.62c0-4.19-2.43-8.75-8-8.75-3.83,0-6.88,2.27-8.52,6.8a13.33,13.33,0,0,1,.08,1.79v22.89h-8.6V173.62c0-4.19-2.49-8.75-8.12-8.75-3.75,0-6.87,2.19-8.43,6.64v24.84h-8.59v-39H154V161a13.45,13.45,0,0,1,10.07-4.3c5.47,0,9.59,2.27,12.19,6a15.81,15.81,0,0,1,12.89-6c9.58,0,15.07,6.72,15.07,16.78v22.88h-8.59Z" id="el_RgOuaNmgKF"/><path d="M213.14,157.3h8.57v3.82c2.49-3,5.85-4.38,10.07-4.38a16.57,16.57,0,0,1,2.81.24v9a14.12,14.12,0,0,0-4.29-.54c-3.68,0-6.88,1.41-8.59,4.68v26.25h-8.57Z" id="el_3CVvvGfSgO"/><path d="M271.47,157.3h8.59v2.88a16.46,16.46,0,0,1,10.47-3.51c11.56,0,20.07,8.75,20.07,20.15S302.09,197,290.53,197a16.4,16.4,0,0,1-10.47-3.43v17.18h-8.59Zm8.59,12.88v13.28a12.28,12.28,0,0,0,10.39,5.32c6.63,0,11.33-5.16,11.33-12s-4.7-12-11.33-12A12.49,12.49,0,0,0,280.06,170.18Z" id="el_0HZ4KnhlXJ"/><path d="M316.81,146a5.7,5.7,0,1,1,10,3.77h-8.59A5.7,5.7,0,0,1,316.81,146Zm1.4,11.33h8.59v39h-8.59Z" id="el_uVwbX3WqkO"/><path d="M334.28,176.82a19.69,19.69,0,0,1,20-20.15c10.85,0,18.12,7.66,18.66,20.15v2.35H343.18c.87,5.54,5.39,9.29,11.25,9.29A13.51,13.51,0,0,0,364.59,184l5.78,6.17A21,21,0,0,1,354.43,197,19.72,19.72,0,0,1,334.28,176.82Zm9.14-4.29H363.5c-1-5.31-4.68-8-9.83-8A10.67,10.67,0,0,0,343.42,172.53Z" id="el_eYUDpy6UzR"/><path d="M378.23,176.82a20.23,20.23,0,0,1,35.07-13.67l-5.86,6a11.65,11.65,0,0,0-9.06-4.13c-6.64,0-11.33,5-11.33,11.79s4.69,11.79,11.33,11.79a11.61,11.61,0,0,0,9.06-4.11l5.86,6a20.23,20.23,0,0,1-35.07-13.65Z" id="el_ZftMYp6ynA"/><path d="M416,176.82a19.69,19.69,0,0,1,20-20.15c10.86,0,18.12,7.66,18.67,20.15v2.35H424.86c.86,5.54,5.39,9.29,11.25,9.29A13.49,13.49,0,0,0,446.26,184l5.78,6.17A21,21,0,0,1,436.11,197,19.72,19.72,0,0,1,416,176.82Zm9.13-4.29h20.08c-1-5.31-4.69-8-9.84-8A10.68,10.68,0,0,0,425.09,172.53Z" id="el_JHYcZbq0Ip"/><path d="M236,192.6a5.71,5.71,0,1,1,10,3.75h-8.59A5.73,5.73,0,0,1,236,192.6Z" id="el_dDVAno6SgI"/><path d="M271.94,122.35a7.46,7.46,0,0,0,1.49.15,27.2,27.2,0,0,1,9.81,2.9,28.47,28.47,0,0,1,11,10.34,40.38,40.38,0,0,1,3.91,8.47A32.86,32.86,0,0,0,306.18,157a19.35,19.35,0,0,0,4.44,3.3,8.34,8.34,0,0,0,1.34.58,1,1,0,0,0,.73-.05,30.26,30.26,0,0,0,5.8-3.55,48.87,48.87,0,0,0,6.15-5.8c2.22-2.48,4.42-5,6.66-7.45A63.86,63.86,0,0,1,342,134.42a44.87,44.87,0,0,1,16.73-7.24,39.74,39.74,0,0,1,9.35-.82,43.36,43.36,0,0,1,17.23,4.11A47.12,47.12,0,0,1,406.45,150a55.37,55.37,0,0,1,6.14,16,67,67,0,0,1,1.3,8.46,81.43,81.43,0,0,1,.14,12.2c-.16,2.56-.41,5.1-.76,7.64q-.74,5.16-1.94,10.24a97,97,0,0,1-2.95,10.58,17.89,17.89,0,0,1-13.39,12,18.42,18.42,0,0,1-22-13.33,18.2,18.2,0,0,1,.25-10.29,100,100,0,0,0,2.68-10.38,67.45,67.45,0,0,0,1-7.2,47.76,47.76,0,0,0,.16-6.66,26.44,26.44,0,0,0-2-9.28,13,13,0,0,0-2.9-4.3,8.82,8.82,0,0,0-4.25-2.27,5,5,0,0,0-2.66.25,8.4,8.4,0,0,0-2.66,1.45,35.23,35.23,0,0,0-4.35,4.2c-2.17,2.43-4.3,4.93-6.52,7.32a85.38,85.38,0,0,1-11.46,10.54,66.06,66.06,0,0,1-14.27,8.18,34.71,34.71,0,0,1-8.54,2.3,36.24,36.24,0,0,1-6.16.32,39.7,39.7,0,0,1-11-2,48.91,48.91,0,0,1-13.05-6.66,63.85,63.85,0,0,1-13-12.55,69.89,69.89,0,0,1-8.83-14.58c-.06-.13-.13-.26-.18-.39a.76.76,0,0,0-.46.16q-4.81,2.49-9.62,5a116.12,116.12,0,0,1-13.47,5.93,69.6,69.6,0,0,1-11,3,54.17,54.17,0,0,1-6.21.72c-1.78.11-3.56.14-5.33.08a45.23,45.23,0,0,1-9.81-1.45A47.26,47.26,0,0,1,193.62,168a18,18,0,0,1-7.49-11.69A18.45,18.45,0,0,1,200,134.88a18.12,18.12,0,0,1,14.46,2.55c.64.41,1.3.82,2,1.18a10.58,10.58,0,0,0,5.9,1.1,28.79,28.79,0,0,0,8.05-2,91.18,91.18,0,0,0,9.42-4.35c3.58-1.85,7.14-3.77,10.78-5.51a69.37,69.37,0,0,1,9.49-3.81,34.55,34.55,0,0,1,7.6-1.49l1.24-.09a.93.93,0,0,0,.44-.07Z" id="el_XirnaUz6Zb"/><path d="M225.2,209.92c4.93,9.5,17.39,11.53,26.22,6.88,8.49-4.49,11-14.88,8.08-23.39l.08-.13.05-.06c.13-.14.28-.26.42-.39l.72-.42c.64-.19,1.28-.35,1.93-.5a42.72,42.72,0,0,1,4.8.08c10.53,2.08,20.06,7.06,30.22,10.41,12,3.95,25.14,5,37.33,1.26,10.87-3.33,21.34-9.69,28.76-18.36a60.86,60.86,0,0,0,9.63-14.44A64.71,64.71,0,0,0,379,150c.54-5-2.39-10.05-5.61-13.56-3.46-3.76-8.6-5.39-13.55-5.61-4.78-.22-10.23,2.29-13.55,5.61A18.73,18.73,0,0,0,341.07,147v-.29a40.15,40.15,0,0,1-1.71,6.83,42.67,42.67,0,0,1-2.51,4.35c1.12-1.56.35-.29-.37.57l-.08.12c-.34.5-.72,1-1,1.45.38-.55.73-1,1-1.37-.77.87-1.57,1.72-2.41,2.54a33.22,33.22,0,0,0-2.78,2.34l-.36.25a44.31,44.31,0,0,1-4.31,2.41,42.69,42.69,0,0,1-5.32,1.45,40.87,40.87,0,0,1-4.95,0c-8.92-1.75-17.16-5.64-25.65-8.83-11.38-4.28-23.25-6.19-35.32-4.35S233,163.56,226.54,173.7A36.05,36.05,0,0,0,225.2,209.92Z" id="el_PSkQc2wJSq"/><path d="M376.06,161.28c-21.25-8.92-43.16-18.05-66.26-20.69-10.08-1.16-21.66-1.4-31,3.26a28.42,28.42,0,0,0-15.74,21.62A42.18,42.18,0,0,0,263,175c-1.61-.15-3.22-.38-4.81-.67-4.69-1.63-14.46-5.8-18.71-7.9-3.71-2.07-7.51-3.28-11.94-2.6-4.16.63-8.93,3.22-11.37,6.76-4.95,7.2-4.42,18.67,3.41,24.58,14.59,11,38.66,16.66,53.14,14.49,10.11-1.51,18.4-7.15,23-16.37,2.9-5.8,2.73-12.07,2.33-18.3h.38a102.92,102.92,0,0,1,20.95,2.89c15,4,29.43,10,43.76,16.05,8.46,3.56,19.71-1,22.79-9.81C389.11,174.94,385.16,165.09,376.06,161.28Z" id="el_a8fnsRpTqv"/><path d="M328.06,226.65a7.46,7.46,0,0,0-1.49-.15,27.2,27.2,0,0,1-9.81-2.9,28.47,28.47,0,0,1-11-10.34,40.38,40.38,0,0,1-3.91-8.47A32.86,32.86,0,0,0,293.82,192a19.35,19.35,0,0,0-4.44-3.3,8.34,8.34,0,0,0-1.34-.58,1,1,0,0,0-.73.05,30.26,30.26,0,0,0-5.8,3.55,48.87,48.87,0,0,0-6.15,5.8c-2.22,2.48-4.42,5-6.66,7.45A63.86,63.86,0,0,1,258,214.58a44.87,44.87,0,0,1-16.73,7.24,39.74,39.74,0,0,1-9.35.82,43.36,43.36,0,0,1-17.23-4.11A47.12,47.12,0,0,1,193.55,199a55.37,55.37,0,0,1-6.14-16,67,67,0,0,1-1.3-8.46,81.43,81.43,0,0,1-.14-12.2c.16-2.56.41-5.1.76-7.64q.74-5.16,1.94-10.24a97,97,0,0,1,3-10.58,17.89,17.89,0,0,1,13.39-12,18.42,18.42,0,0,1,22,13.33,18.2,18.2,0,0,1-.25,10.29,100,100,0,0,0-2.68,10.38,67.45,67.45,0,0,0-1,7.2,47.76,47.76,0,0,0-.16,6.66,26.44,26.44,0,0,0,2,9.28,13,13,0,0,0,2.9,4.3,8.82,8.82,0,0,0,4.25,2.27,5,5,0,0,0,2.66-.25,8.4,8.4,0,0,0,2.66-1.45,35.23,35.23,0,0,0,4.35-4.2c2.17-2.43,4.3-4.93,6.52-7.32a85.38,85.38,0,0,1,11.46-10.54,66.06,66.06,0,0,1,14.27-8.18,34.71,34.71,0,0,1,8.54-2.3,36.24,36.24,0,0,1,6.16-.32,39.7,39.7,0,0,1,11,2,48.91,48.91,0,0,1,13.05,6.66,63.85,63.85,0,0,1,13,12.55,69.89,69.89,0,0,1,8.83,14.58c.06.13.13.26.18.39a.76.76,0,0,0,.46-.16q4.81-2.49,9.62-5a116.12,116.12,0,0,1,13.47-5.93,69.6,69.6,0,0,1,11-3,54.17,54.17,0,0,1,6.21-.72c1.78-.11,3.56-.14,5.33-.08a45.23,45.23,0,0,1,9.81,1.45A47.26,47.26,0,0,1,406.38,181a18,18,0,0,1,7.49,11.69A18.45,18.45,0,0,1,400,214.12a18.12,18.12,0,0,1-14.46-2.55c-.64-.41-1.3-.82-2-1.18a10.58,10.58,0,0,0-5.9-1.1,28.79,28.79,0,0,0-8.05,2,91.18,91.18,0,0,0-9.42,4.35c-3.58,1.85-7.14,3.77-10.78,5.51a69.37,69.37,0,0,1-9.49,3.81,34.55,34.55,0,0,1-7.6,1.49l-1.24.09a.93.93,0,0,0-.44.07Z" id="el_Z_DULDJUI1"/><path d="M374.8,140.08c-4.93-9.5-17.39-11.53-26.22-6.88-8.49,4.49-11,14.88-8.08,23.39l-.08.13-.05.06c-.13.14-.28.26-.42.39l-.72.42c-.64.19-1.28.35-1.93.5a42.72,42.72,0,0,1-4.8-.08C322,155.93,312.44,151,302.28,147.6c-12-3.95-25.14-5-37.33-1.26-10.87,3.33-21.34,9.69-28.76,18.36a60.86,60.86,0,0,0-9.63,14.44A64.71,64.71,0,0,0,221,200c-.54,5,2.39,10.05,5.61,13.56,3.46,3.76,8.6,5.39,13.55,5.61,4.78.22,10.23-2.29,13.55-5.61A18.73,18.73,0,0,0,258.93,203v.29a40.15,40.15,0,0,1,1.71-6.83,42.67,42.67,0,0,1,2.51-4.35c-1.12,1.56-.35.29.37-.57l.08-.12c.34-.5.72-1,1-1.45-.38.55-.73,1-1,1.37.77-.87,1.57-1.72,2.41-2.54a33.22,33.22,0,0,0,2.78-2.34l.36-.25a44.31,44.31,0,0,1,4.31-2.41,42.69,42.69,0,0,1,5.32-1.45,40.88,40.88,0,0,1,4.95,0c8.92,1.75,17.16,5.64,25.65,8.83,11.38,4.28,23.25,6.19,35.32,4.35s22.21-9.13,28.67-19.27A36.05,36.05,0,0,0,374.8,140.08Z" id="el_Lna-GbaKry"/></svg>