<svg id="Layer_1" data-name="Layer 1" xmlns="http://www.w3.org/2000/svg" viewBox="0 0 769 450"><defs><style>.cls-1{fill:#060687;}</style></defs><title>mrpiece-sarah-maslechko-05</title><path class="cls-1" d="M251.19,222.6c0-5.36-3.1-11.17-10.28-11.17-4.88,0-8.78,2.89-10.87,8.67a16.1,16.1,0,0,1,.1,2.3v29.22h-11v-29c0-5.36-3.19-11.17-10.38-11.17-4.79,0-8.77,2.79-10.77,8.48v31.71h-11V201.75h11v4.69A17.19,17.19,0,0,1,210.89,201c7,0,12.24,2.89,15.56,7.65,4.69-6.19,11.57-7.65,16.46-7.65,12.24,0,19.25,8.57,19.25,21.42V251.6h-11Z"/><path class="cls-1" d="M273.57,201.75h10.94v4.88c3.19-3.82,7.48-5.58,12.86-5.58a19.73,19.73,0,0,1,3.6.3v11.47a17.84,17.84,0,0,0-5.49-.69c-4.69,0-8.78,1.79-11,6v33.51H273.57Z"/><path class="cls-1" d="M348.06,201.75h11v3.69A21,21,0,0,1,372.4,201c14.76,0,25.63,11.17,25.63,25.73s-10.87,25.73-25.63,25.73A21,21,0,0,1,359,248V270h-11Zm11,16.46v17A15.7,15.7,0,0,0,372.3,242c8.47,0,14.46-6.58,14.46-15.3s-6-15.3-14.46-15.3C366.71,211.43,361.63,214.12,359,218.21Z"/><path class="cls-1" d="M406,187.29a7.28,7.28,0,1,1,12.77,4.81h-11A7.22,7.22,0,0,1,406,187.29Zm1.8,14.46h11v49.87h-11Z"/><path class="cls-1" d="M428.27,226.69c0-14.53,11-25.73,25.54-25.73,13.86,0,23.14,9.77,23.84,25.73v3h-38c1.1,7.09,6.89,11.87,14.37,11.87a17.23,17.23,0,0,0,13-5.69l7.38,7.88c-4.29,5-11.58,8.68-20.35,8.68C439.24,252.42,428.27,241.25,428.27,226.69ZM440,221.21h25.64c-1.29-6.79-6-10.18-12.56-10.18A13.62,13.62,0,0,0,440,221.21Z"/><path class="cls-1" d="M484.4,226.69c0-14.53,11-25.73,25.73-25.73a25.36,25.36,0,0,1,19,8.27l-7.48,7.65a14.89,14.89,0,0,0-11.57-5.28c-8.48,0-14.47,6.38-14.47,15.06s6,15.06,14.47,15.06a14.87,14.87,0,0,0,11.57-5.25l7.48,7.65a25.4,25.4,0,0,1-19,8.28C495.37,252.42,484.4,241.25,484.4,226.69Z"/><path class="cls-1" d="M532.58,226.69c0-14.53,11-25.73,25.53-25.73,13.86,0,23.14,9.77,23.84,25.73v3h-38c1.11,7.09,6.89,11.87,14.37,11.87a17.23,17.23,0,0,0,13-5.69l7.38,7.88c-4.29,5-11.57,8.68-20.35,8.68C543.55,252.42,532.58,241.25,532.58,226.69Zm11.66-5.48h25.64c-1.3-6.79-6-10.18-12.56-10.18A13.63,13.63,0,0,0,544.24,221.21Z"/><path class="cls-1" d="M302.73,246.83a7.28,7.28,0,1,1,12.76,4.79h-11A7.26,7.26,0,0,1,302.73,246.83Z"/></svg>