<svg id="Layer_1" data-name="Layer 1" xmlns="http://www.w3.org/2000/svg" viewBox="0 0 769 450"><title>bmw-the-escape-sarah-maslechko-07</title><path d="M146.22,246.91l34.59-4.78-1.45,9.29-12.17,1.67-5.85,37.69-10.21,1.41L157,254.51l-12.17,1.68Z"/><path d="M218.72,264.1,205.14,266l-3,19.2-10.22,1.41,7.29-47,10.27-1.41-2.87,18.48,13.58-1.86,2.87-18.48,10.26-1.42-7.3,47-10.26,1.42Z"/><path d="M254.88,231.9l29.3-4-1.45,9.28-19,2.63-1.39,9,17.52-2.35-1.45,9.28-17.53,2.43-1.57,10.08,19.09-2.63-1.44,9.28-29.35,4.06Z"/><path d="M325.53,222.15l29.3-4.05-1.45,9.28L334.33,230l-1.39,9,17.54-2.42L349,245.87l-17.49,2.45L330,258.4l19.1-2.63-1.45,9.28-29.36,4.06Z"/><path d="M403.48,249.77a11.14,11.14,0,0,1-9,8.84l-16,2.2c-4.32.6-7.24-2.38-6.58-6.69l.82-5.28,10.31-3.09-.73,4.73a.47.47,0,0,0,.32.6.42.42,0,0,0,.27,0l9.92-1.36a.94.94,0,0,0,.82-.8l1-6.57c.08-.49-.23-.72-.77-.78l-13.13-2c-4-.62-6.11-2.13-5.45-6.43L377,222.64a11.13,11.13,0,0,1,9-8.84l15.56-2.15c4.31-.59,7.24,2.38,6.57,6.69l-.76,4.94L397,226.35l.68-4.37a.48.48,0,0,0-.33-.6.49.49,0,0,0-.27,0l-9.48,1.31a.94.94,0,0,0-.82.8l-.92,6.08c-.1.56.23.72.63.8.67.12,4.53.69,13.46,2,3.86.58,5.89,2.16,5.23,6.5Z"/><path d="M458.78,234.19l-1.25,8.12a11.15,11.15,0,0,1-9,8.83l-16.2,2.24c-4.32.59-7.24-2.39-6.58-6.69l4.89-31.47a11.16,11.16,0,0,1,9-8.84l16.2-2.23c4.31-.6,7.24,2.38,6.57,6.68l-1.09,7.06L451,221l1-6.5a.49.49,0,0,0-.31-.61.48.48,0,0,0-.29,0l-10,1.39a.93.93,0,0,0-.82.8L436.37,243a.48.48,0,0,0,.31.6.45.45,0,0,0,.28,0L447,242.21a.93.93,0,0,0,.82-.8l1.17-7.55Z"/><path d="M515.43,241.9,505,243.35l-1.53-8.91-14.5,2-4.28,9.7-10.46,1.44,22.72-49.12L507.24,197Zm-22-14.86,8.48-1.17-1.81-15.08Z"/><path d="M565.9,188.94c4.32-.59,7.25,2.39,6.58,6.69l-2.25,14.26a11.14,11.14,0,0,1-9,8.84l-15,2.07L543.6,238l-10.21,1.42,7.3-47Zm-16.44,11.39-1.73,11.14,11.88-1.64a.92.92,0,0,0,.82-.81l1.51-9.73c.07-.43-.17-.67-.6-.6Z"/><path d="M594.91,184.94l29.28-4-1.45,9.29-19,2.62-1.38,9,17.53-2.42-1.44,9.29-17.54,2.41-1.57,10.1,19.09-2.64L617,227.84l-29.35,4Z"/><path d="M264.73,192l6.44-.89a1.4,1.4,0,0,1,1.67,1,1.43,1.43,0,0,1,0,.65l-.45,2.87a2.06,2.06,0,0,1-1.17,1.37.94.94,0,0,1,.89,1,.13.13,0,0,1,0,.06l-.51,3.27a2.86,2.86,0,0,1-2.27,2.3l-6.5.93Zm1.16,9.7,2.86-.39a.23.23,0,0,0,.21-.21l.39-2.41c0-.11,0-.17-.19-.16l-2.83.4Zm3.59-5.49a.22.22,0,0,0,.2-.19l.34-2.21c0-.12,0-.2-.17-.18l-2.79.38-.4,2.59Z"/><path d="M281.3,195.54l-1,6.56-2.63.37L279.59,190l2.63-.36,2,7.06,4.31-7.92,2.63-.36-1.94,12.5-2.64.36,1-6.57-2.73,4.91-2.29.32Z"/><path d="M302.83,186.76l2.36-.33.93,7.43,2.1-7.84,2.68-.37L307,198.42l-2.78.37-.93-7.9-3.47,8.51-2.78.38V187.54l2.67-.37-.3,7.63Z"/><path d="M323.43,196.15l1.94-12.5,7.9-1.1-.39,2.48-5.17.72-.37,2.38,4.76-.65-.38,2.47-4.76.65-.8,5.17Z"/><path d="M340.23,193.83l-2.73.38,1.94-12.51,2.73-.37Z"/><path d="M348.63,180.44l2.73-.38-1.56,10,5-.69-.38,2.48L346.69,193Z"/><path d="M362.77,184.29l-1,6.57-2.64.36,1.94-12.5,2.64-.37,2,7.06,4.3-7.93,2.63-.36-1.94,12.5L368,190l1-6.57-2.72,4.91-2.29.32Z"/><path d="M385.68,185.53a3,3,0,0,1-2.4,2.34l-4.24.59a1.47,1.47,0,0,1-1.76-1.1,1.56,1.56,0,0,1,0-.68l.23-1.41,2.74-.81-.2,1.25a.13.13,0,0,0,.07.16h.09l2.64-.36a.27.27,0,0,0,.21-.22l.27-1.74a.19.19,0,0,0-.2-.21l-3.5-.53c-1.06-.16-1.62-.56-1.44-1.71l.43-2.78A3,3,0,0,1,381,176l4.13-.57a1.47,1.47,0,0,1,1.76,1.1,1.56,1.56,0,0,1,0,.68l-.21,1.31-2.74.82.18-1.16a.13.13,0,0,0-.08-.16H384l-2.53.36a.24.24,0,0,0-.21.21l-.25,1.62c0,.14.06.18.17.21l3.58.53c1,.16,1.57.57,1.39,1.72Z"/><path d="M409,172.09a1.46,1.46,0,0,1,1.76,1.1,1.52,1.52,0,0,1,0,.67l-.6,3.8A3,3,0,0,1,407.7,180l-4,.54-.65,4.58-2.73.38L402.24,173Zm-4.37,3-.46,3,3.16-.44a.24.24,0,0,0,.22-.21l.4-2.6a.11.11,0,0,0-.06-.15.07.07,0,0,0-.09,0Z"/><path d="M420.56,178.23l-1.85.26-.72,4.65-2.72.37,1.94-12.5,7-.93a1.47,1.47,0,0,1,1.76,1.1,1.38,1.38,0,0,1,0,.67l-.57,3.71a3,3,0,0,1-1.86,2.19l1.49,4.37-3,.41Zm-1-5.17-.45,2.95,3.4-.47a.27.27,0,0,0,.22-.21l.4-2.58a.12.12,0,0,0-.07-.15.08.08,0,0,0-.09,0Z"/><path d="M433.19,168.75l7.8-1.07-.39,2.47-5.07.71-.37,2.38,4.65-.64-.39,2.48-4.65.64-.42,2.68,5.09-.7-.39,2.48-7.81,1.07Z"/><path d="M454.19,176.07a3,3,0,0,1-2.39,2.35l-4.26.58a1.44,1.44,0,0,1-1.76-1.06,1.42,1.42,0,0,1,0-.71l.21-1.41,2.79-.82-.22,1.26a.13.13,0,0,0,.09.16.09.09,0,0,0,.07,0l2.64-.36a.25.25,0,0,0,.21-.22l.27-1.74c0-.14-.06-.19-.2-.21l-3.49-.53c-1.06-.17-1.63-.57-1.45-1.71l.43-2.79a3,3,0,0,1,2.36-2.35l4.15-.57a1.45,1.45,0,0,1,1.75,1.08,1.51,1.51,0,0,1,0,.7l-.19,1.31-2.79.82.19-1.16a.13.13,0,0,0-.07-.16h-.09l-2.53.34a.27.27,0,0,0-.21.22l-.2,1.6c0,.15.06.2.17.22l3.59.53c1,.15,1.56.57,1.38,1.72Z"/><path d="M462.34,164.73l7.79-1.08-.39,2.48-5.06.7-.33,2.39,4.65-.64-.38,2.47-4.65.65-.42,2.68,5.08-.71-.38,2.48-7.81,1.08Z"/><path d="M484.13,173.94l-2.64.37-3.05-6.71-1.08,7.27-2.63.36,1.89-12.43,2.64-.37,3,6.75,1.13-7.33,2.64-.36Z"/><path d="M491.77,160.66l9.2-1.26-.4,2.47-3.23.45-1.56,10-2.73.37,1.56-10-3.24.44Z"/><path d="M512.69,168a3,3,0,0,1-2.39,2.35l-4.26.58a1.44,1.44,0,0,1-1.75-1.07,1.38,1.38,0,0,1,0-.7l.21-1.41,2.79-.82-.21,1.26a.12.12,0,0,0,.08.16h.07l2.63-.36a.24.24,0,0,0,.22-.21l.27-1.75c0-.14-.06-.19-.2-.21l-3.49-.53c-1.06-.17-1.63-.57-1.45-1.71l.44-2.79a3,3,0,0,1,2.35-2.36l4.15-.57a1.45,1.45,0,0,1,1.75,1.08,1.51,1.51,0,0,1,0,.7l-.18,1.31-2.74.82.18-1.16a.12.12,0,0,0-.06-.16H511l-2.52.34a.25.25,0,0,0-.21.22l-.26,1.61c0,.15.06.2.17.22l3.58.53c1,.15,1.57.57,1.39,1.72Z"/></svg>