<svg id="Layer_1" data-name="Layer 1" xmlns="http://www.w3.org/2000/svg" viewBox="0 0 800 200"><title>bmw-the-escape-sarah-maslechko-05</title><path d="M143.46,123.56l37.24-5.14-1.56,10-13.1,1.8-6.3,40.58-11,1.52,6.3-40.57-13.1,1.81Z"/><path d="M221.52,142.07l-14.62,2-3.21,20.67-11,1.52,7.85-50.6,11.05-1.52-3.09,19.9,14.62-2,3.09-19.9,11.05-1.53-7.86,50.6-11.05,1.53Z"/><path d="M260.45,107.4,292,103.05l-1.56,10-20.49,2.83-1.5,9.65L287.32,123l-1.56,10-18.88,2.61-1.69,10.86,20.56-2.84-1.55,10L252.59,158Z"/><path d="M336.53,96.9l31.54-4.36-1.56,10L346,105.4l-1.5,9.65,18.89-2.61-1.56,10L343,125.08l-1.68,10.86,20.56-2.84-1.56,10-31.61,4.37Z"/><path d="M420.46,126.64a12,12,0,0,1-9.68,9.52l-17.21,2.37c-4.65.65-7.8-2.56-7.08-7.2l.88-5.69,11.1-3.32-.79,5.09a.52.52,0,0,0,.64.65L409,126.59a1,1,0,0,0,.88-.86l1.09-7.07c.09-.53-.25-.78-.83-.85L396,115.67c-4.29-.67-6.58-2.29-5.86-6.92l1.76-11.32a12,12,0,0,1,9.68-9.52l16.75-2.31c4.65-.64,7.8,2.56,7.08,7.2l-.82,5.32-11.1,3.31.73-4.71a.52.52,0,0,0-.64-.65l-10.21,1.41a1,1,0,0,0-.88.86l-1,6.54c-.1.61.25.78.68.87.73.12,4.88.74,14.5,2.16,4.15.62,6.34,2.32,5.63,7Z"/><path d="M480,109.87l-1.35,8.74a12,12,0,0,1-9.68,9.51l-17.44,2.41c-4.65.64-7.8-2.57-7.08-7.2l5.26-33.89a12,12,0,0,1,9.68-9.51l17.44-2.41c4.64-.64,7.8,2.57,7.08,7.2l-1.18,7.6-11.1,3.32,1.09-7a.52.52,0,0,0-.65-.66l-10.81,1.5a1,1,0,0,0-.88.86l-4.51,29a.52.52,0,0,0,.64.66l10.82-1.5a1,1,0,0,0,.88-.86l1.26-8.13Z"/><path d="M541,118.17l-11.27,1.56-1.64-9.59-15.62,2.16-4.6,10.45-11.27,1.55,24.46-52.89,11.12-1.54Zm-23.74-16,9.14-1.26-1.95-16.24Z"/><path d="M595.34,61.15c4.65-.64,7.8,2.57,7.08,7.2L600,83.7a12,12,0,0,1-9.68,9.52l-16.15,2.23L571.33,114l-11,1.53,7.86-50.6Zm-17.7,12.26-1.87,12,12.8-1.77a1,1,0,0,0,.88-.87l1.62-10.48c.08-.46-.18-.72-.64-.65Z"/><path d="M626.57,56.84l31.53-4.35-1.56,10-20.49,2.82L634.56,75l18.88-2.6-1.55,10L633,85l-1.69,10.87,20.56-2.84-1.55,10-31.61,4.36Z"/><path d="M271.06,64.46l6.93-.95a1.5,1.5,0,0,1,1.8,1.81l-.48,3.09a2.22,2.22,0,0,1-1.26,1.48A1,1,0,0,1,279,71l-.55,3.52A3.08,3.08,0,0,1,276,77l-7,1Zm1.25,10.45,3.08-.42a.27.27,0,0,0,.23-.23l.41-2.59c0-.12,0-.19-.2-.17l-3.05.42ZM276.18,69a.25.25,0,0,0,.21-.21l.37-2.38c0-.13-.05-.21-.19-.19l-3,.41-.43,2.79Z"/><path d="M288.9,68.25l-1.1,7.07-2.83.4,2.09-13.47,2.83-.39,2.13,7.6,4.64-8.53,2.84-.39L297.41,74l-2.84.39,1.1-7.07-2.93,5.28-2.47.35Z"/><path d="M312.08,58.8l2.55-.35,1,8L317.89,58l2.88-.4-4.16,13.75-3,.4-1-8.5-3.73,9.16-3,.41,0-13.18,2.88-.4-.33,8.22Z"/><path d="M334.26,68.91l2.09-13.46,8.51-1.18-.42,2.67-5.57.77-.4,2.57,5.13-.71-.41,2.67-5.13.7-.86,5.56Z"/><path d="M352.35,66.41l-2.94.41,2.09-13.47,2.94-.4Z"/><path d="M361.4,52l2.94-.41-1.68,10.8,5.37-.75-.41,2.67-8.31,1.15Z"/><path d="M376.62,56.14l-1.1,7.07-2.84.39,2.09-13.46,2.84-.39,2.13,7.6,4.63-8.54,2.84-.39-2.09,13.46-2.84.4,1.1-7.08-2.92,5.29-2.47.34Z"/><path d="M401.29,57.48A3.2,3.2,0,0,1,398.71,60l-4.57.63a1.58,1.58,0,0,1-1.89-1.92l.24-1.51,2.95-.88-.21,1.35a.13.13,0,0,0,.17.17l2.84-.39a.27.27,0,0,0,.23-.23l.29-1.88c0-.14-.06-.21-.22-.22l-3.76-.57c-1.14-.18-1.75-.61-1.55-1.84l.46-3a3.2,3.2,0,0,1,2.58-2.53l4.45-.61a1.58,1.58,0,0,1,1.89,1.91l-.22,1.42-2.95.88.19-1.25a.14.14,0,0,0-.17-.18l-2.72.38a.27.27,0,0,0-.23.23l-.27,1.74c0,.16.07.2.18.23l3.86.57c1.1.17,1.69.62,1.5,1.85Z"/><path d="M426.35,43a1.58,1.58,0,0,1,1.89,1.91L427.6,49A3.2,3.2,0,0,1,425,51.55l-4.3.59L420,57.07l-2.94.41L419.12,44Zm-4.71,3.26-.49,3.19,3.4-.47a.28.28,0,0,0,.24-.23l.43-2.79a.13.13,0,0,0-.17-.17Z"/><path d="M438.85,49.62l-2,.28-.77,5-2.93.4,2.09-13.46,7.49-1a1.58,1.58,0,0,1,1.89,1.91L444,46.74A3.26,3.26,0,0,1,442,49.1l1.61,4.7-3.22.45Zm-1.1-5.57-.49,3.18,3.67-.51a.28.28,0,0,0,.23-.23l.43-2.77a.13.13,0,0,0-.17-.17Z"/><path d="M452.45,39.41l8.39-1.15-.42,2.66-5.45.76-.4,2.56,5-.69-.42,2.67-5,.69-.45,2.89,5.47-.75-.41,2.66-8.41,1.16Z"/><path d="M475.06,47.29a3.21,3.21,0,0,1-2.58,2.53l-4.58.63A1.57,1.57,0,0,1,466,48.54l.23-1.52,3-.88L469,47.49a.14.14,0,0,0,.17.18l2.84-.39a.28.28,0,0,0,.23-.24l.29-1.87c0-.15-.07-.21-.22-.23l-3.76-.57c-1.14-.18-1.75-.61-1.56-1.84l.47-3A3.19,3.19,0,0,1,470,37l4.46-.62a1.57,1.57,0,0,1,1.88,1.92l-.21,1.41-3,.88.2-1.25a.13.13,0,0,0-.17-.17l-2.72.37a.28.28,0,0,0-.23.23L470,41.5c0,.16.06.21.18.23l3.86.58c1.1.16,1.68.61,1.49,1.85Z"/><path d="M483.83,35.08l8.39-1.16-.42,2.67-5.45.75L486,39.91l5-.69-.41,2.66-5,.7-.45,2.89,5.47-.76-.41,2.67-8.41,1.16Z"/><path d="M507.29,45l-2.84.39-3.28-7.22L500,46l-2.83.39L499.21,33l2.84-.4,3.27,7.27,1.22-7.89,2.84-.39Z"/><path d="M515.52,30.7l9.91-1.36L525,32l-3.48.49-1.68,10.79-2.94.4,1.68-10.79-3.49.48Z"/><path d="M538.05,38.59a3.21,3.21,0,0,1-2.58,2.53l-4.58.63A1.57,1.57,0,0,1,529,39.84l.23-1.52,3-.88L532,38.79a.14.14,0,0,0,.17.18l2.83-.39a.28.28,0,0,0,.24-.23l.29-1.88c0-.15-.07-.21-.22-.23l-3.76-.57c-1.14-.18-1.75-.61-1.56-1.84l.47-3A3.19,3.19,0,0,1,533,28.29l4.46-.62a1.57,1.57,0,0,1,1.88,1.92L539.14,31l-2.95.88.2-1.25a.13.13,0,0,0-.17-.17l-2.72.37a.27.27,0,0,0-.23.23L533,32.8c0,.16.06.21.18.23l3.85.58c1.11.16,1.69.61,1.5,1.85Z"/></svg>