<svg id="Layer_1" data-name="Layer 1" xmlns="http://www.w3.org/2000/svg" viewBox="0 0 800 200"><defs><style>.cls-1{fill:#f2bc51;}</style></defs><title>mrpiece-sarah-maslechko-08</title><path class="cls-1" d="M505,81.07c-29.33-12.32-59.57-24.91-91.44-28.56-13.92-1.59-29.9-1.93-42.76,4.5a39.24,39.24,0,0,0-21.72,29.84A58.13,58.13,0,0,0,349,100c-2.22-.21-4.44-.52-6.64-.93-6.47-2.25-19.95-8-25.82-10.9-5.12-2.86-10.36-4.52-16.47-3.59-5.75.87-12.33,4.45-15.69,9.33-6.84,9.94-6.11,25.77,4.7,33.92,20.13,15.18,53.35,23,73.34,20,13.94-2.08,25.39-9.86,31.71-22.59,4-8,3.76-16.65,3.21-25.26l.52,0a141.91,141.91,0,0,1,28.91,4c20.75,5.56,40.62,13.85,60.39,22.15,11.68,4.91,27.21-1.34,31.45-13.54C523,99.92,517.55,86.33,505,81.07Z"/></svg>