<svg id="Layer_1" data-name="Layer 1" xmlns="http://www.w3.org/2000/svg" viewBox="0 0 800 200"><defs><style>.cls-1{fill:#060687;}</style></defs><title>mrpiece-sarah-maslechko-06</title><path class="cls-1" d="M438.73,172.66a10.91,10.91,0,0,0-2.06-.21,37.52,37.52,0,0,1-13.53-4A39.22,39.22,0,0,1,408,154.18a55.84,55.84,0,0,1-5.4-11.69,45.37,45.37,0,0,0-11.12-17.68,26.82,26.82,0,0,0-6.13-4.55,11.23,11.23,0,0,0-1.85-.8,1.37,1.37,0,0,0-1,.07,41.55,41.55,0,0,0-8,4.9,67.25,67.25,0,0,0-8.49,8c-3.07,3.42-6.1,6.87-9.19,10.28A87.78,87.78,0,0,1,342,156a62,62,0,0,1-23.1,10A55.44,55.44,0,0,1,306,167.13a59.84,59.84,0,0,1-23.77-5.67,65.12,65.12,0,0,1-29.12-26.94,76.58,76.58,0,0,1-8.47-22.15,91.88,91.88,0,0,1-1.8-11.67,111.38,111.38,0,0,1-.19-16.84q.32-5.3,1.05-10.54c.67-4.75,1.57-9.46,2.67-14.13a136.26,136.26,0,0,1,4.07-14.61c3.16-8.81,9.39-14.42,18.49-16.57A25.41,25.41,0,0,1,299.27,46.4a25.05,25.05,0,0,1-.35,14.2,136.28,136.28,0,0,0-3.69,14.33,95.15,95.15,0,0,0-1.43,9.94,65.39,65.39,0,0,0-.21,9.18,36.17,36.17,0,0,0,2.7,12.81,18,18,0,0,0,4,5.94,12.23,12.23,0,0,0,5.86,3.13,7,7,0,0,0,3.68-.35,11.45,11.45,0,0,0,3.67-2,48.1,48.1,0,0,0,6-5.79c3-3.35,5.93-6.8,9-10.11a118.33,118.33,0,0,1,15.81-14.54A91.76,91.76,0,0,1,364,71.85a48.16,48.16,0,0,1,11.79-3.17,49.29,49.29,0,0,1,8.5-.45A54.92,54.92,0,0,1,399.42,71a67.11,67.11,0,0,1,18,9.19,87.46,87.46,0,0,1,18,17.32,95.68,95.68,0,0,1,12.18,20.12c.09.18.18.36.26.54a1.05,1.05,0,0,0,.63-.23c4.43-2.28,8.84-4.58,13.28-6.84a159.9,159.9,0,0,1,18.58-8.18,94.88,94.88,0,0,1,15.16-4.11,74.52,74.52,0,0,1,8.57-1q3.68-.23,7.35-.11a62.54,62.54,0,0,1,13.54,2,65.31,65.31,0,0,1,21.84,10,24.81,24.81,0,0,1,10.34,16.14,25.46,25.46,0,0,1-19.2,29.53A25,25,0,0,1,518,151.85c-.89-.57-1.79-1.13-2.73-1.63a14.54,14.54,0,0,0-8.14-1.51,39.53,39.53,0,0,0-11.11,2.81,126.34,126.34,0,0,0-13,6c-4.95,2.55-9.85,5.2-14.88,7.6a96.34,96.34,0,0,1-13.1,5.27,48.69,48.69,0,0,1-10.49,2.05l-1.71.12c-.2,0-.42,0-.6.1Z"/></svg>