<svg id="Layer_1" data-name="Layer 1" xmlns="http://www.w3.org/2000/svg" viewBox="0 0 800 200"><defs><style>.cls-1{fill:#f2bc51;}</style></defs><title>mrpiece-sarah-maslechko-07</title><path class="cls-1" d="M349.62,122.91c-.18.26-.34.53-.51.79l.75-1.06-.08.09Z"/><path class="cls-1" d="M503.25,51.81c-6.8-13.11-24-15.91-36.19-9.49-11.71,6.19-15.16,20.53-11.15,32.27l-.1.18-.08.09c-.18.19-.38.36-.57.54l-1,.57c-.88.26-1.77.49-2.66.69a61.08,61.08,0,0,1-6.63-.1c-14.53-2.87-27.68-9.75-41.7-14.37-16.55-5.45-34.69-6.9-51.52-1.74-15,4.6-29.44,13.37-39.68,25.34-5.23,6.12-10,12.57-13.29,19.93a89.32,89.32,0,0,0-7.64,28.8c-.74,6.84,3.3,13.86,7.75,18.7,4.77,5.2,11.86,7.44,18.7,7.75,6.59.3,14.12-3.16,18.7-7.75,4.27-4.26,6.17-9.07,7.16-14.53,0,.13,0,.26,0,.4a55.73,55.73,0,0,1,2.36-9.42,60.13,60.13,0,0,1,3.46-6c-1.55,2.15-.48.4.51-.79,0,0,.07-.11.11-.17.47-.68,1-1.32,1.45-2-.52.76-1,1.38-1.32,1.9q1.59-1.81,3.32-3.51c.9-.87,2.91-2.1,3.84-3.23l.5-.34a59.66,59.66,0,0,1,5.94-3.33,58.88,58.88,0,0,1,7.35-2,55.59,55.59,0,0,1,6.83,0c12.3,2.41,23.68,7.78,35.39,12.18,15.71,5.91,32.09,8.55,48.75,6s30.64-12.59,39.56-26.59A49.75,49.75,0,0,0,503.25,51.81Z"/></svg>