<svg id="Layer_1" data-name="Layer 1" xmlns="http://www.w3.org/2000/svg" viewBox="0 0 800 200"><defs><style>.cls-1{fill:#050689;}</style></defs><title>mrpiece-sarah-maslechko-05</title><path class="cls-1" d="M225.74,96.87c0-7-4.05-14.6-13.43-14.6-6.39,0-11.48,3.78-14.22,11.34a21.52,21.52,0,0,1,.14,3v38.2H183.88V96.87c0-7-4.17-14.6-13.56-14.6-6.26,0-11.47,3.65-14.08,11.08v41.46H141.9V69.62h14.34v6.13a22.5,22.5,0,0,1,16.82-7.17c9.13,0,16,3.78,20.34,10,6.13-8.09,15.13-10,21.52-10,16,0,25.16,11.21,25.16,28v38.2H225.74Z"/><path class="cls-1" d="M255,69.62H269.3V76c4.17-5,9.78-7.3,16.81-7.3a26.36,26.36,0,0,1,4.7.39v15a23.45,23.45,0,0,0-7.17-.91c-6.13,0-11.48,2.35-14.34,7.82v43.81H255Z"/><path class="cls-1" d="M352.37,69.62h14.34v4.82a27.37,27.37,0,0,1,17.47-5.86c19.3,0,33.51,14.6,33.51,33.64s-14.21,33.63-33.51,33.63c-6.91,0-13-2.08-17.47-5.73V158.8H352.37Zm14.34,21.51V113.3c3.39,5.34,10,8.87,17.34,8.87,11.08,0,18.91-8.61,18.91-20s-7.83-20-18.91-20C376.75,82.27,370.1,85.79,366.71,91.13Z"/><path class="cls-1" d="M428.05,50.71A9.52,9.52,0,1,1,444.74,57H430.4A9.47,9.47,0,0,1,428.05,50.71Zm2.35,18.91h14.34v65.19H430.4Z"/><path class="cls-1" d="M457.22,102.22c0-19,14.34-33.64,33.38-33.64,18.12,0,30.25,12.78,31.16,33.64v3.91H472.08c1.44,9.26,9,15.51,18.78,15.51a22.56,22.56,0,0,0,16.95-7.43l9.65,10.3c-5.61,6.52-15.13,11.34-26.6,11.34C471.56,135.85,457.22,121.25,457.22,102.22Zm15.26-7.17H506c-1.69-8.87-7.82-13.3-16.42-13.3A17.8,17.8,0,0,0,472.48,95.05Z"/><path class="cls-1" d="M530.58,102.22c0-19,14.34-33.64,33.64-33.64a33.13,33.13,0,0,1,24.9,10.82l-9.78,10a19.41,19.41,0,0,0-15.12-6.91c-11.08,0-18.91,8.34-18.91,19.69s7.83,19.68,18.91,19.68A19.38,19.38,0,0,0,579.34,115l9.78,10a33.13,33.13,0,0,1-24.9,10.82C544.92,135.85,530.58,121.25,530.58,102.22Z"/><path class="cls-1" d="M593.56,102.22c0-19,14.34-33.64,33.38-33.64,18.12,0,30.25,12.78,31.16,33.64v3.91H608.42c1.44,9.26,9,15.51,18.78,15.51a22.56,22.56,0,0,0,16.95-7.43l9.65,10.3c-5.61,6.52-15.13,11.34-26.6,11.34C607.9,135.85,593.56,121.25,593.56,102.22Zm15.25-7.17h33.51c-1.69-8.87-7.82-13.3-16.42-13.3A17.82,17.82,0,0,0,608.81,95.05Z"/><path class="cls-1" d="M293.11,128.55a9.52,9.52,0,1,1,16.68,6.26H295.45A9.51,9.51,0,0,1,293.11,128.55Z"/></svg>