<?xml version="1.0" encoding="utf-8"?>
<!-- Generator: Adobe Illustrator 22.1.0, SVG Export Plug-In . SVG Version: 6.00 Build 0)  -->
<svg version="1.1" id="Layer_1" xmlns="http://www.w3.org/2000/svg" xmlns:xlink="http://www.w3.org/1999/xlink" x="0px" y="0px"
	 viewBox="0 0 55.3 74.7" style="enable-background:new 0 0 55.3 74.7;" xml:space="preserve">
<style type="text/css">
	.st0{fill:#4B94CF;}
	.st1{fill:#F9EC31;}
	.st2{fill:#4B95D0;}
</style>
<g>
	<path class="st0" d="M55.3,34.2C55.3,15.3,42.9,0,27.6,0C12.4,0,0,15.3,0,34.2c0,12,5,22.5,12.5,28.6c0.8,0.6,1.3,1.5,1.6,2.4
		c1.9,5.6,7.2,9.6,13.5,9.6c6.3,0,11.6-4,13.5-9.6c0.3-0.9,0.9-1.8,1.6-2.4C50.3,56.6,55.3,46.1,55.3,34.2z"/>
	<g>
		<path class="st1" d="M27.6,3.5c13.3,0,24.1,13.8,24.1,30.7c0,16.9-10.8,30.7-24.1,30.7S3.5,51.1,3.5,34.2
			C3.5,17.3,14.3,3.5,27.6,3.5"/>
		<polygon class="st1" points="23.6,67.3 27.6,71 31.7,67.3 		"/>
	</g>
	<g>
		<g>
			<path class="st0" d="M18.7,52.5c0,0,0,0-0.1,0c0,0,0,0,0,0l-0.1,0c0,0-0.1,0-0.2,0c0,0-0.1,0-0.2,0h-0.2c-0.1,0-0.1,0-0.2,0
				c-0.1,0-0.1,0.1-0.1,0.1c0,0.1,0,0.2,0.1,0.2c0,0,0,0,0.1,0.1c0,0.1,0.1,0.2,0.1,0.5c0,0,0,0,0,0c0,0.2,0,0.6,0.1,1.2l0,0
				c0,0.2,0,0.4,0,0.5c0,0.2,0,0.3,0,0.4c0,0.1-0.1,0.2-0.2,0.3C17.5,56,17.4,56,17.4,56c-0.1,0-0.2,0-0.3,0.1c-0.3,0-0.6-0.2-1-0.7
				c-0.2-0.2-0.3-0.5-0.4-0.8c-0.1-0.3-0.1-0.7-0.1-1.1l0-0.1c0-0.1,0-0.1,0-0.1c0-0.7,0.1-1.3,0.3-1.7c0.2-0.5,0.5-0.7,0.8-0.7
				c0,0,0,0,0.1,0h0.1c0.2,0,0.4,0.1,0.6,0.2c0.2,0.1,0.5,0.4,0.7,0.7c0,0.1,0.1,0.2,0.2,0.2h0c0,0,0.1,0,0.1-0.1v-0.1
				c0-0.1,0-0.1,0-0.1c-0.1-0.2-0.1-0.3-0.1-0.5c0-0.1-0.1-0.3-0.2-0.4c0,0,0,0,0,0c-0.3-0.2-0.5-0.4-0.7-0.4
				c-0.2,0-0.4-0.1-0.7-0.1c-0.5,0-0.9,0.3-1.4,0.9c-0.4,0.6-0.6,1.4-0.6,2.3c0,0.9,0.2,1.6,0.6,2.2c0.4,0.6,0.9,0.9,1.4,0.9
				c0.2,0,0.5-0.1,0.8-0.2c0.3-0.1,0.6-0.3,0.8-0.5c0.1-0.1,0.1-0.2,0.1-0.2c0,0,0,0,0,0l0,0c0,0,0-0.1,0-0.1c0,0,0-0.1,0-0.1
				c0-0.6,0-1,0-1.2c0-0.3,0-0.5,0-0.6c0-0.4,0.1-0.6,0.1-0.7c0-0.1,0-0.1,0-0.1c0.1,0,0.1-0.2,0.1-0.3
				C18.7,52.6,18.7,52.5,18.7,52.5z"/>
			<path class="st0" d="M21.2,53c-0.3-0.4-0.6-0.7-1-0.7c-0.4,0-0.7,0.2-1,0.7c-0.3,0.4-0.4,1-0.4,1.6c0,0.6,0.1,1.1,0.4,1.6
				c0.3,0.4,0.6,0.7,1,0.7c0.4,0,0.7-0.2,1-0.7c0.3-0.4,0.4-1,0.4-1.6C21.6,53.9,21.5,53.4,21.2,53z M20.9,54.5c0,0.3,0,0.5-0.1,0.7
				c0,0.2-0.1,0.4-0.2,0.5c-0.1,0.3-0.3,0.5-0.5,0.5c-0.2,0-0.3-0.2-0.5-0.5c-0.1-0.3-0.2-0.7-0.2-1.2c0-0.5,0.1-0.9,0.2-1.2
				c0,0,0,0,0,0c0.1-0.3,0.3-0.5,0.5-0.5c0.3,0,0.4,0.2,0.5,0.5C20.8,53.6,20.9,54,20.9,54.5z"/>
			<path class="st0" d="M24,53c-0.3-0.4-0.6-0.7-1-0.7c-0.4,0-0.7,0.2-1,0.7c-0.3,0.4-0.4,1-0.4,1.6c0,0.6,0.1,1.1,0.4,1.6
				c0.3,0.4,0.6,0.7,1,0.7c0.4,0,0.7-0.2,1-0.7c0.3-0.4,0.4-1,0.4-1.6C24.4,53.9,24.3,53.4,24,53z M22.5,53.3
				C22.5,53.3,22.5,53.3,22.5,53.3c0.1-0.3,0.3-0.5,0.5-0.5c0.3,0,0.4,0.2,0.5,0.5c0.1,0.3,0.2,0.8,0.2,1.3c0,0.3,0,0.5-0.1,0.7
				c0,0.2-0.1,0.4-0.2,0.5c-0.1,0.3-0.3,0.5-0.5,0.5c-0.2,0-0.3-0.2-0.5-0.5c-0.1-0.3-0.2-0.7-0.2-1.2
				C22.4,54.1,22.4,53.6,22.5,53.3z"/>
			<path class="st0" d="M27.2,56.5c0-0.1-0.1-0.2-0.2-0.2h0c0,0,0,0-0.1-0.1c0-0.1-0.1-0.4-0.1-0.7c0-0.3,0-0.7,0-1.2v-0.7
				c0-0.3,0-0.6,0-0.8c0-0.6,0-1,0-1.1l0,0c0-0.2,0-0.5,0-0.7v-0.2c0,0,0-0.1,0-0.2c0-0.2-0.1-0.2-0.1-0.2h0c0,0,0,0,0,0l0,0
				c-0.1,0-0.1,0-0.1,0.1c0,0,0,0-0.1,0c-0.1,0-0.1,0-0.2,0c-0.1,0-0.1,0-0.2,0c0,0-0.1,0-0.1,0.1c0,0,0,0.1,0,0.1c0,0,0,0,0,0
				c0,0.1,0.1,0.2,0.2,0.2c0,0,0,0,0.1,0.1c0,0,0.1,0.1,0.1,0.4c0,0.1,0,0.3,0,0.6v0.3c0,0.2,0,0.3,0,0.4c0,0.1,0,0.1,0,0.1
				c0,0,0,0-0.1,0c0,0-0.1-0.1-0.2-0.2c-0.1-0.1-0.2-0.1-0.3-0.1c-0.4,0-0.7,0.2-0.9,0.7c-0.2,0.5-0.3,1-0.3,1.6
				c0,0.6,0.1,1.1,0.3,1.5c0.2,0.4,0.5,0.6,0.7,0.6c0.2,0,0.3-0.1,0.5-0.3l0.1-0.1c0,0,0,0.1,0,0.1c0,0,0,0.1,0.1,0.1
				c0,0,0.1,0.1,0.1,0.1c0,0,0,0,0,0c0,0,0.1,0,0.1,0c0,0,0.1,0,0.1,0c0.1,0,0.2,0,0.2,0c0,0,0.1,0,0.1,0c0,0,0.1,0,0.1,0
				c0.1,0,0.1-0.1,0.1-0.1C27.2,56.6,27.2,56.5,27.2,56.5L27.2,56.5C27.2,56.5,27.2,56.5,27.2,56.5z M25.8,56
				C25.8,56,25.8,56,25.8,56c-0.1,0-0.3-0.2-0.4-0.4c-0.1-0.2-0.2-0.6-0.2-1.1c0-0.1,0-0.1,0-0.3c0-0.4,0.1-0.7,0.2-0.9
				c0.1-0.3,0.3-0.4,0.4-0.4c0.1,0,0.3,0.1,0.4,0.3c0.1,0.1,0.1,0.2,0.1,0.2c0,0.1,0,0.1,0,0.3c0,0.5,0,1,0,1.4v0.4
				c0,0.1,0,0.2-0.1,0.3C26.1,55.9,26,56,25.8,56L25.8,56C25.8,56,25.8,56,25.8,56z"/>
			<path class="st0" d="M31,51.5C31,51.5,31,51.5,31,51.5C31,51.5,31,51.5,31,51.5c0-0.1-0.1-0.2-0.2-0.4L30.7,51
				c-0.1-0.2-0.1-0.3-0.2-0.5c0-0.1-0.1-0.2-0.3-0.2c0,0,0,0,0,0c-0.3,0-0.7,0-1.1,0.1c-0.1,0-0.2,0-0.4,0c-0.2,0-0.5,0-0.8,0
				c0,0,0,0,0,0h-0.1c-0.1,0-0.1,0.1-0.2,0.3c0,0.1-0.1,0.2-0.1,0.4c0,0.1-0.1,0.2-0.1,0.3c0,0,0,0.1,0,0.1c0,0,0,0.1,0,0.1
				c0,0,0,0.1,0,0.1c0,0.1,0.1,0.1,0.2,0.1c0.1,0,0.2-0.1,0.3-0.3c0.1-0.2,0.2-0.3,0.4-0.5c0.2-0.1,0.4-0.2,0.5-0.2c0,0,0,0,0,0
				c0,0,0,0.1,0,0.1c0,0.3,0,0.6,0,0.9c0,0.5,0,1,0,1.4v0.3c0,0.9-0.1,1.5-0.1,1.9c0,0.3-0.1,0.6-0.1,0.7c0,0.1,0,0.1,0,0.1
				c-0.1,0-0.1,0.2-0.1,0.2c0,0.1,0.1,0.2,0.2,0.2c0,0,0,0,0.1,0c0.1,0,0.1,0,0.2,0h0c0.1,0,0.2,0,0.2,0c0.1,0,0.3,0,0.5,0
				c0,0,0.1,0,0.1-0.2c0-0.2,0-0.3-0.1-0.3c0,0,0,0,0,0c0,0,0,0-0.1-0.1c0-0.2-0.1-0.4-0.1-0.7c0-0.4,0-1,0-1.8c0-0.5,0-1.1,0-1.7
				c0-0.4,0-0.7,0-0.9c0-0.1,0-0.1,0-0.1c0,0,0,0,0,0c0.1,0,0.3,0.1,0.5,0.2c0.2,0.1,0.3,0.3,0.4,0.5c0.1,0.2,0.2,0.3,0.3,0.3
				c0,0,0.1,0,0.2-0.1C31,51.7,31,51.6,31,51.5C31,51.6,31,51.5,31,51.5z"/>
			<path class="st0" d="M33.5,56.6c0-0.1-0.1-0.1-0.1-0.2c0,0,0,0-0.1-0.2c0-0.1,0-0.3,0-0.5v-0.1c0-0.1,0-0.1,0-0.2
				c0-0.2,0-0.9,0-1v-1.1c0-0.2,0-0.3,0-0.5c0-0.2-0.1-0.3-0.1-0.4c-0.1-0.1-0.1-0.1-0.2-0.1c0,0-0.1,0-0.2,0c0,0-0.1,0-0.2,0
				c-0.1,0-0.2,0.1-0.4,0.1c0,0-0.1,0.1-0.2,0.1l-0.1,0.1c0,0-0.1,0-0.1,0.1c0,0,0,0,0,0c0,0,0-0.1,0-0.2c0,0,0-0.2,0-0.6
				c0-0.4,0-0.6,0-0.7c0-0.2,0-0.3,0-0.5v-0.1c0,0,0-0.1,0-0.2c0-0.2-0.1-0.2-0.2-0.2c0,0,0,0,0,0c-0.1,0-0.1,0-0.1,0c0,0,0,0-0.1,0
				h-0.2c-0.1,0-0.2,0-0.2,0c0,0-0.1,0-0.1,0.2c0,0.1,0,0.2,0.1,0.2c0,0,0,0,0.1,0.1c0,0.1,0.1,0.4,0.1,0.8c0,0.3,0,0.7,0,1.3v0.3
				c0,0.1,0,0.3,0,0.4c0,0.9,0,1.5,0,1.8c0,0.4-0.1,0.7-0.1,0.7c0,0.1,0,0.2,0,0.2c0,0-0.1,0.1-0.1,0.2c0,0.1,0.1,0.2,0.1,0.2
				c0,0,0,0,0,0c0,0,0.1,0,0.2,0c0,0,0.1,0,0.2,0c0.1,0,0.2,0,0.2,0c0,0,0.1,0,0.1,0c0,0,0.1,0,0.1,0c0.1,0,0.1-0.1,0.1-0.1v0
				c0,0,0,0,0,0l0,0c0-0.1-0.1-0.2-0.1-0.2c0,0,0,0-0.1-0.2c0-0.1,0-0.4-0.1-0.8c0-0.1,0-0.4,0-0.7c0-0.2,0-0.5,0-0.9v-0.3
				c0-0.1,0-0.2,0-0.2c0,0,0,0,0.1-0.1c0,0,0.1,0,0.1-0.1c0.1,0,0.1,0,0.1-0.1c0.1,0,0.2,0,0.3,0c0.1,0,0.2,0,0.2,0.1
				c0,0,0.1,0.2,0.1,0.8c0,0.2,0,0.4,0,0.5c0,0,0,0.7,0,0.9c0,0.2,0,0.3,0,0.4c0,0.2,0,0.4-0.1,0.5c0,0.1,0,0.1,0,0.1
				c0,0-0.1,0.1-0.1,0.2c0,0,0,0.1,0.1,0.1c0,0,0,0,0,0c0,0,0.1,0,0.1,0c0,0,0,0,0,0l0.2,0c0,0,0.1,0,0.2,0h0.2c0.1,0,0.1,0,0.2,0
				C33.4,56.7,33.5,56.7,33.5,56.6C33.5,56.6,33.5,56.6,33.5,56.6z"/>
			<g>
				<path class="st0" d="M34.8,56.5L34.8,56.5c0-0.2-0.1-0.2-0.1-0.2c0,0,0,0,0-0.1c0,0,0-0.1,0-0.3c0-0.2,0-0.5,0-0.9
					c0-0.2,0-0.4,0-0.8c0-0.4,0-0.7,0-0.8v-0.7c0,0,0-0.1,0-0.2c0-0.2-0.1-0.2-0.2-0.2c0,0,0,0,0,0c-0.1,0-0.1,0-0.1,0h-0.1
					c-0.1,0-0.2,0-0.2,0c-0.1,0-0.2,0-0.2,0c-0.1,0-0.1,0-0.1,0.2c0,0.2,0.1,0.2,0.1,0.2c0,0,0,0,0.1,0.1c0,0.1,0,0.2,0.1,0.5
					c0,0,0,0.1,0,0.3c0,0.1,0,0.4,0,0.7c0,0,0,0,0,0c0,0.1,0,0.2,0,0.2c0,0.5,0,0.9,0,1.1c0,0.2,0,0.4-0.1,0.4c0,0.1,0,0.1,0,0.1
					c-0.1,0-0.1,0.1-0.1,0.2c0,0,0,0.1,0,0.1c0,0,0,0.1,0.1,0.1c0,0,0,0,0,0c0,0,0.1,0,0.2,0c0,0,0.1,0,0.2,0h0.2c0,0,0.1,0,0.2,0
					c0,0,0.1,0,0.1-0.1C34.8,56.6,34.8,56.6,34.8,56.5C34.8,56.5,34.8,56.5,34.8,56.5z"/>
				<path class="st0" d="M34.3,51.6c0.1,0,0.2-0.1,0.3-0.2c0.1-0.1,0.1-0.2,0.1-0.4c0-0.2,0-0.3-0.1-0.4c-0.1-0.1-0.2-0.2-0.3-0.2
					c-0.1,0-0.2,0.1-0.3,0.2c-0.1,0.1-0.1,0.2-0.1,0.4c0,0.1,0,0.3,0.1,0.4C34.1,51.6,34.2,51.6,34.3,51.6z"/>
			</g>
			<path class="st0" d="M37.5,56.5c0-0.1-0.1-0.1-0.1-0.1c0,0,0,0-0.1-0.2c0-0.1,0-0.2-0.1-0.5c0-0.1,0-1.2,0-1.3v-0.4
				c0-0.2,0-0.4,0-0.7c0,0,0-0.1,0-0.2c0-0.1,0-0.2,0-0.3c0-0.2-0.1-0.3-0.2-0.4c-0.1-0.1-0.2-0.1-0.2-0.1c0,0-0.1,0-0.2,0
				c0,0-0.1,0-0.2,0l0,0c-0.1,0-0.3,0.1-0.4,0.1c-0.1,0-0.1,0.1-0.2,0.1c0,0-0.1,0.1-0.2,0.1c0,0,0,0,0,0c0,0,0,0,0-0.1v0
				c0,0,0,0,0,0v-0.1c0-0.1-0.1-0.2-0.2-0.2c0,0,0,0,0,0c-0.1,0-0.1,0-0.1,0h-0.1c-0.1,0-0.1,0-0.2,0l-0.1,0c0,0,0,0,0,0
				c0,0,0,0-0.1,0l0,0c0,0,0,0-0.1,0c0,0-0.1,0-0.1,0.2c0,0.1,0,0.2,0.1,0.2c0,0,0,0,0.1,0.1c0,0.1,0,0.2,0.1,0.5c0,0,0,0.1,0,0.3
				c0,0.1,0,0.3,0,0.7c0,0.1,0,0.2,0,0.2c0,0.5,0,0.9,0,1.1c0,0.2,0,0.4-0.1,0.4c0,0.1,0,0.1-0.1,0.1c0,0-0.1,0.1-0.1,0.2
				c0,0,0,0.1,0,0.1c0,0.1,0.1,0.1,0.1,0.1c0,0,0,0,0,0c0.1,0,0.1,0,0.2,0c0,0,0.1,0,0.2,0c0.1,0,0.2,0,0.2,0c0.1,0,0.1,0,0.2,0
				c0.1,0,0.1-0.1,0.1-0.1c0,0,0,0,0-0.1c0-0.2,0-0.2-0.1-0.2c0,0,0,0,0-0.1c0,0,0-0.1,0-0.3v0c0-0.3,0-0.6,0-0.9c0-0.4,0-0.7,0-0.8
				c0-0.1,0-0.3,0-0.6c0-0.2,0.1-0.3,0.2-0.4c0,0,0,0,0.1,0c0,0,0,0,0,0c0,0,0.1,0,0.1,0c0.2-0.1,0.4-0.1,0.5,0c0,0.1,0.1,0.2,0.1,1
				l0,0.6c0,0.3,0,0.5,0,0.7c0,0.2,0,0.3,0,0.4c0,0.3-0.1,0.4-0.1,0.5c0,0.1,0,0.1-0.1,0.1c-0.1,0-0.1,0.1-0.1,0.2
				c0,0,0,0.1,0.1,0.1c0,0,0,0,0,0c0,0,0.1,0,0.1,0c0,0,0,0,0,0l0.2,0c0,0,0.1,0,0.2,0h0.2c0.1,0,0.1,0,0.2,0
				C37.5,56.7,37.5,56.7,37.5,56.5L37.5,56.5z"/>
			<path class="st0" d="M40.5,52.7c-0.1-0.2-0.2-0.4-0.4-0.4c-0.1,0-0.2,0.1-0.4,0.2c-0.1,0.1-0.1,0.1-0.1,0.1c0,0,0,0,0,0
				c-0.2-0.2-0.4-0.3-0.7-0.3c-0.3,0-0.6,0.2-0.9,0.5c-0.2,0.3-0.3,0.7-0.3,1.1c0,0.3,0,0.5,0.1,0.7c0.1,0.2,0.2,0.4,0.3,0.5
				c0,0,0,0.1,0,0.1c0,0,0,0,0,0c0,0,0,0,0,0c0,0,0,0,0,0c0,0,0,0.1-0.1,0.1c0,0,0,0,0,0c0,0,0,0.1-0.1,0.1
				c-0.1,0.1-0.1,0.1-0.1,0.2l0,0c0,0.1-0.1,0.1-0.1,0.1c0,0,0,0,0,0.1c0,0,0,0,0,0.1l0,0c0,0.1,0.1,0.1,0.1,0.1c0,0,0.1,0,0.2,0.1
				c0,0,0.1,0,0.1,0c0,0,0,0-0.1,0c0,0,0,0,0,0c-0.1,0-0.1,0.1-0.2,0.2c0,0.1-0.1,0.2-0.1,0.3c0,0,0,0,0,0.1v0.1
				c0,0.3,0.1,0.6,0.3,0.8c0.2,0.2,0.5,0.3,0.8,0.3c0.3,0,0.6-0.1,0.8-0.4c0.2-0.3,0.3-0.6,0.3-0.8c0,0,0,0,0,0c0,0,0,0,0,0
				c0,0,0,0,0-0.1c0-0.1,0-0.1,0-0.1c0,0,0,0,0,0l0-0.2v-0.1c0-0.1-0.1-0.2-0.1-0.2c0,0-0.1,0-0.2-0.1L39.7,56c0,0,0,0-0.1,0l0,0
				c0,0,0,0,0,0c-0.1,0-0.2-0.1-0.4-0.1c0,0-0.1,0-0.2-0.1c-0.1,0-0.3-0.1-0.5-0.2c0,0,0-0.1,0-0.1l0,0c0,0,0,0,0,0c0,0,0.2,0,0.3,0
				c0.3,0,0.5-0.1,0.8-0.4c0.2-0.3,0.3-0.7,0.3-1.1c0-0.3-0.1-0.6-0.2-0.8c0,0,0,0,0,0c0,0,0,0,0,0c0,0,0,0,0,0c0,0,0,0.1,0.1,0.2
				c0,0,0,0,0,0.1c0,0,0,0,0,0c0,0.1,0,0.2,0.1,0.2c0,0,0,0,0,0c0.1,0,0.2-0.1,0.2-0.2c0-0.1,0.1-0.2,0.1-0.2c0-0.1,0.1-0.1,0.1-0.2
				C40.5,52.8,40.5,52.7,40.5,52.7z M38.4,56.6C38.4,56.6,38.5,56.5,38.4,56.6c0.1-0.1,0.1-0.1,0.1-0.2c0.1,0,0.2,0.1,0.4,0.1
				c0.1,0,0.2,0.1,0.4,0.2c0,0,0,0,0.1,0c0,0,0,0.1,0,0.1c0,0.2-0.1,0.3-0.2,0.5c-0.1,0.2-0.3,0.2-0.4,0.2c-0.2,0-0.3-0.1-0.4-0.2
				c-0.1-0.1-0.2-0.3-0.2-0.4C38.3,56.8,38.3,56.7,38.4,56.6z M38.5,53.1C38.5,53.1,38.5,53.1,38.5,53.1c0.1-0.2,0.2-0.4,0.4-0.4
				s0.3,0.1,0.4,0.4c0,0.2,0.1,0.5,0.1,0.7c0,0.2,0,0.5-0.1,0.7c-0.1,0.2-0.2,0.4-0.4,0.4c-0.2,0-0.3-0.1-0.3-0.4
				c-0.1-0.2-0.1-0.5-0.1-0.7C38.4,53.6,38.4,53.4,38.5,53.1z"/>
		</g>
		<g>
			<path class="st2" d="M13.6,24.5l-0.1,0.4c-0.2,1.1,0,1.8,0.9,1.8c0.7,0,1.1-0.6,1.3-1.7c0.2-1.2,0.1-2-1.2-3.4
				c-1.4-1.6-1.8-2.5-1.5-4.3c0.3-1.8,1.3-2.8,3-2.8c2.6,0,2.8,1.9,2.6,3.5l0,0.3h-1.9l0-0.3c0.2-1,0.2-1.9-0.7-1.9
				c-0.6,0-1,0.4-1.1,1.3c-0.2,1,0,1.6,1,2.7c1.7,2,2.1,3.2,1.7,5.1c-0.4,2-1.4,3.1-3.4,3.1c-2.3,0-3-1.4-2.6-3.5l0-0.2H13.6z"/>
			<path class="st2" d="M24.1,25c-0.3,1.5-0.5,2.5-0.6,3h-1.9c0-0.2,0.1-0.6,0.1-0.9c-0.6,0.9-1.1,1-1.9,1c-0.8,0-2-0.4-1.4-3
				l1.6-7.5h1.9l-1.6,7.4c-0.2,1,0,1.4,0.6,1.4c0.7,0,1.1-0.5,1.4-2l1.4-6.8h1.9L24.1,25z"/>
			<path class="st2" d="M26.8,27.3l-0.9,4.2H24l2.3-10.8c0.3-1.4,0.5-2.3,0.6-3h1.9c0,0.1-0.1,0.5-0.1,0.9c0.4-0.7,1-1.1,1.9-1.1
				c1.5,0,1.9,1.4,1.5,3.4l-0.8,3.8c-0.5,2.3-1.3,3.5-2.9,3.5C27.3,28.2,26.9,27.7,26.8,27.3z M29.2,24.8L30,21
				c0.2-1,0.3-1.9-0.6-1.9c-0.8,0-1.2,0.9-1.4,2.2l-0.6,2.9c-0.3,1.3-0.3,2.2,0.6,2.2C28.7,26.5,29,25.7,29.2,24.8z"/>
			<path class="st2" d="M34.2,23.3c0,0.1-0.3,1.5-0.3,1.6c-0.2,0.9-0.1,1.6,0.6,1.6c0.7,0,0.9-0.7,1.1-1.4l0.1-0.3h1.9l0,0.2
				c-0.3,1.5-0.8,3-3.1,3c-2.6,0-2.6-2-2.3-3.7l0.8-3.6c0.3-1.6,0.9-3.3,3.2-3.3c2.5,0,2.7,1.8,2.3,3.5c0,0.1-0.5,2.2-0.5,2.3H34.2z
				 M36.3,21.8c0-0.1,0.3-1.3,0.3-1.4c0.1-0.7,0.1-1.4-0.7-1.4c-0.7,0-1,0.6-1.1,1.4l-0.3,1.4H36.3z"/>
			<path class="st2" d="M39.3,21.2c0.4-1.7,0.6-2.8,0.7-3.5h1.8c0,0.2-0.1,0.7-0.3,1.5c0.6-1.3,1.5-1.7,2.4-1.7l-0.5,2.3
				c-1.4,0-2.2,0.6-2.6,2.6L39.7,28h-1.9L39.3,21.2z"/>
			<path class="st2" d="M18,36.8l-1.3,6h-1.9l2.8-13.4h2.5c2.1,0,3,1.1,2.6,3.4l-0.1,0.7c-0.4,1.8-1.1,2.3-1.9,2.5
				c0.6,0.4,1,1,0.6,3.1c-0.3,1.1-0.6,2.9-0.7,3.7h-1.9c0-0.8,0.4-2.5,0.7-4.1c0.3-1.4,0.1-1.9-0.9-1.9H18z M18.4,35.2h0.5
				c1.2,0,1.6-0.4,1.9-1.8l0.1-0.7c0.2-1,0-1.6-1-1.6h-0.6L18.4,35.2z"/>
			<path class="st2" d="M23.8,32.5h1.9l-2.2,10.3h-1.9L23.8,32.5z"/>
			<path class="st2" d="M26.8,42.1l-0.9,4.2H24l2.3-10.8c0.3-1.4,0.5-2.3,0.6-3h1.9c0,0.1-0.1,0.5-0.1,0.9c0.4-0.7,1-1.1,1.9-1.1
				c1.5,0,1.9,1.4,1.5,3.4l-0.8,3.8C30.7,41.8,30,43,28.3,43C27.4,43,27,42.5,26.8,42.1z M29.3,39.6l0.8-3.8c0.2-1,0.3-1.9-0.6-1.9
				c-0.8,0-1.2,0.9-1.4,2.2l-0.6,2.9c-0.3,1.3-0.3,2.2,0.6,2.2C28.8,41.3,29.1,40.5,29.3,39.6z"/>
			<path class="st2" d="M34.2,38.2c0,0.1-0.3,1.5-0.3,1.6c-0.2,0.9-0.1,1.6,0.6,1.6c0.7,0,0.9-0.7,1.1-1.4l0.1-0.3h1.9l0,0.2
				c-0.3,1.5-0.8,3-3.1,3c-2.6,0-2.6-2-2.3-3.7l0.8-3.6c0.3-1.6,0.9-3.3,3.2-3.3c2.5,0,2.7,1.8,2.3,3.5c0,0.1-0.5,2.2-0.5,2.3H34.2z
				 M36.4,36.6c0-0.1,0.3-1.3,0.3-1.4c0.1-0.7,0.1-1.4-0.7-1.4c-0.7,0-1,0.6-1.1,1.4l-0.3,1.4H36.4z"/>
		</g>
	</g>
</g>
</svg>
